SplineFontDB: 3.0
FontName: IranianSans-light
FullName: Iranian Sans light
FamilyName: Iranian Sans 
Weight: Light
Copyright: this is spcial version  for use in font-store.ir
Version: 5.0.0 build 1/7/1393
ItalicAngle: 0
UnderlinePosition: -100
UnderlineWidth: 100
Ascent: 1556
Descent: 492
InvalidEm: 0
sfntRevision: 0x00010000
LayerCount: 2
Layer: 0 0 "Back" 1
Layer: 1 0 "Fore" 0
XUID: [1021 107 -802105209 1359]
FSType: 0
OS2Version: 4
OS2_WeightWidthSlopeOnly: 0
OS2_UseTypoMetrics: 1
CreationTime: 1159092060
ModificationTime: 1415464989
PfmFamily: 81
TTFWeight: 300
TTFWidth: 5
LineGap: 0
VLineGap: 0
Panose: 2 0 5 3 0 0 0 0 0 0
OS2TypoAscent: 1556
OS2TypoAOffset: 0
OS2TypoDescent: -492
OS2TypoDOffset: 0
OS2TypoLinegap: 0
OS2WinAscent: 1901
OS2WinAOffset: 0
OS2WinDescent: 483
OS2WinDOffset: 0
HheadAscent: 1901
HheadAOffset: 0
HheadDescent: -483
HheadDOffset: 0
OS2SubXSize: 1331
OS2SubYSize: 1433
OS2SubXOff: -212
OS2SubYOff: 286
OS2SupXSize: 1331
OS2SupYSize: 1433
OS2SupXOff: 730
OS2SupYOff: 983
OS2StrikeYSize: 102
OS2StrikeYPos: 530
OS2CapHeight: 0
OS2XHeight: 0
OS2Vendor: 'RITA'
OS2CodePages: 00000040.20080000
OS2UnicodeRanges: 80002003.80002042.00000008.00000000
Lookup: 4 1 0 "'ccmp' Glyph Composition/Decomposition in Arabic lookup 0" { "'ccmp' Glyph Composition/Decomposition in Arabic lookup 0 subtable"  } ['ccmp' ('arab' <'ARA ' 'dflt' > ) ]
Lookup: 4 1 1 "'rlig' Required Ligatures in Arabic lookup 1" { "'rlig' Required Ligatures in Arabic lookup 1 subtable"  } ['rlig' ('arab' <'dflt' > ) ]
Lookup: 4 9 1 "'rlig' Required Ligatures in Arabic lookup 2" { "'rlig' Required Ligatures in Arabic lookup 2 subtable"  } ['rlig' ('arab' <'ARA ' 'dflt' > ) ]
Lookup: 1 9 0 "'init' Initial Forms in Arabic lookup 3" { "'init' Initial Forms in Arabic lookup 3 subtable"  } ['init' ('arab' <'ARA ' 'dflt' > ) ]
Lookup: 1 9 0 "'medi' Medial Forms in Arabic lookup 4" { "'medi' Medial Forms in Arabic lookup 4 subtable"  } ['medi' ('arab' <'ARA ' 'dflt' > ) ]

StartChar: .notdef
Encoding: 65536 -1 0
Width: 959
VWidth: 1524
GlyphClass: 2
Flags: HMW
LayerCount: 2
Back
Fore
SplineSet
811 -289 m 1
 811 983 l 1
 150 983 l 1
 150 -289 l 1
 811 -289 l 1
860 -337 m 1
 100 -337 l 1
 100 1034 l 1
 860 1034 l 1
 860 -337 l 1
EndSplineSet
EndChar

StartChar: exclam
Encoding: 33 33 4
Width: 640
VWidth: 1524
GlyphClass: 2
Flags: HMW
LayerCount: 2
Back
Fore
SplineSet
381 581 m 1
 367 321 l 1
 277 321 l 1
 262 581 l 1
 262 1072 l 1
 381 1072 l 1
 381 581 l 1
381 103 m 1
 381 -55 l 1
 262 -55 l 1
 262 103 l 1
 381 103 l 1
EndSplineSet
Substitution2: "'calt' Contextual Alternates in Arabic lookup 9 subtable" exclam.fa
EndChar

StartChar: uni0022
Encoding: 34 34 5
Width: 734
VWidth: 1524
GlyphClass: 2
Flags: HMW
LayerCount: 2
Back
Fore
SplineSet
563 1072 m 1
 563 679 l 1
 469 679 l 1
 469 1072 l 1
 563 1072 l 1
267 1072 m 1
 267 679 l 1
 175 679 l 1
 175 1072 l 1
 267 1072 l 1
EndSplineSet
EndChar

StartChar: uni0023
Encoding: 35 35 6
Width: 1340
VWidth: 1524
GlyphClass: 2
Flags: HMW
LayerCount: 2
Back
Fore
SplineSet
1109 349 m 1
 1109 269 l 1
 834 269 l 1
 753 -55 l 1
 670 -55 l 1
 750 269 l 1
 478 269 l 1
 399 -55 l 1
 314 -55 l 1
 397 269 l 1
 143 269 l 1
 143 349 l 1
 414 349 l 1
 491 650 l 1
 232 650 l 1
 232 730 l 1
 510 730 l 1
 590 1054 l 1
 676 1054 l 1
 593 730 l 1
 865 730 l 1
 946 1054 l 1
 1029 1054 l 1
 949 730 l 1
 1199 730 l 1
 1199 650 l 1
 929 650 l 1
 854 349 l 1
 1109 349 l 1
499 349 m 1
 771 349 l 1
 844 650 l 1
 575 650 l 1
 499 349 l 1
EndSplineSet
EndChar

StartChar: uni0024
Encoding: 36 36 7
Width: 1017
VWidth: 1524
GlyphClass: 2
Flags: HMW
LayerCount: 2
Back
Fore
SplineSet
520 16 m 1
 542 19 l 1
 688 37 761 100 761 208 c 0
 761 332.351867567 662.217927845 373.328068632 544 396 c 1
 520 400 l 1
 520 16 l 1
483 870 m 1
 461 868 l 1
 324 853 256 791 256 684 c 0
 256 563.874892665 345.589672604 526.897448243 460 507 c 2
 483 503 l 1
 483 870 l 1
153 677 m 128
 153 855.237602512 294.581444181 928.906148795 483 939 c 1
 483 1121 l 1
 520 1121 l 1
 520 942 l 1
 624 937 715 922 794 897 c 1
 794 807 l 1
 715 843 631 863 541 868 c 2
 520 869 l 1
 520 496 l 1
 712.365032706 462.053229522 865 416.578418225 865 218 c 128
 865 32.2317664525 715.474349181 -43.3049534678 520 -55 c 1
 520 -290 l 1
 483 -290 l 1
 482 -55 l 1
 462 -55 l 1
 356 -52 253 -31 153 9 c 1
 153 102 l 1
 252 46 356 17 463 16 c 1
 483 16 l 1
 483 409 l 1
 295.830803777 442.029858157 153 484.394187767 153 677 c 128
EndSplineSet
EndChar

StartChar: uni0025
Encoding: 37 37 8
Width: 1519
VWidth: 1524
GlyphClass: 2
Flags: HMW
LayerCount: 2
Back
Fore
SplineSet
108 796 m 128
 108 965.388280474 194.117942507 1094 356 1094 c 128
 519.896182244 1094 608 967.321287199 608 796 c 128
 608 623.501277319 521.636254831 498 356 498 c 128
 190.53328109 498 108 623.658248378 108 796 c 128
1153 1094 m 1
 448 -78 l 1
 369 -78 l 1
 1075 1094 l 1
 1153 1094 l 1
357 1034 m 128
 239.296929743 1034 192 921.799929897 192 796 c 128
 192 669.606615758 237.219965363 557 356 557 c 128
 473.265860257 557 522 669.757420993 522 795 c 128
 522 920.204446957 474.278533993 1034 357 1034 c 128
914 221 m 128
 914 393.00986836 999.482621186 518 1164 518 c 128
 1328.21449924 518 1412 391.170507026 1412 219 c 128
 1412 46.4665657077 1326.98184004 -78 1162 -78 c 2
 1161 -78 l 2
 997.08798786 -78 914 49.5825897269 914 221 c 128
1164 459 m 128
 1046.33884362 459 999 345.761855233 999 220 c 0
 999 107 1031 34 1094 -1 c 0
 1115 -12 1138 -18 1163 -18 c 0
 1279.17333903 -18 1328 95.4037853073 1328 220 c 128
 1328 345.187705655 1281.05393729 459 1164 459 c 128
EndSplineSet
EndChar

StartChar: uni0026
Encoding: 38 38 9
Width: 1247
VWidth: 1524
GlyphClass: 2
Flags: HMW
LayerCount: 2
Back
Fore
SplineSet
232 306 m 128
 232 123.341742121 368.234977434 8 554 8 c 128
 650 8 738 43 817 114 c 1
 833 128 l 1
 391 581 l 1
 377 568 l 1
 280 483 232 395 232 306 c 128
572 1011 m 128
 464.057951553 1011 363 948.122448683 363 850 c 128
 363 809 372 775 388 746 c 128
 404 717 437 677 486 626 c 2
 901 201 l 1
 915 222 l 1
 977 317 1011 420 1017 531 c 1
 1122 531 l 1
 1105 401 1053 277 964 160 c 1
 954 146 l 1
 1151 -55 l 1
 1010 -55 l 1
 892 67 l 1
 781 -28 661 -76 534 -77 c 1
 531 -77 l 1
 301.250024973 -75.1321140242 121 59.3709386981 121 283 c 0
 121 411 188 524 322 622 c 1
 338 634 l 1
 326 650 l 1
 277 713 253 778 253 847 c 128
 253 995.268512219 385.902042947 1094 540 1094 c 128
 624 1094 708 1077 792 1044 c 1
 792 948 l 1
 709 990 636 1011 572 1011 c 128
EndSplineSet
EndChar

StartChar: uni0027
Encoding: 39 39 10
Width: 437
VWidth: 1524
GlyphClass: 2
Flags: HMW
LayerCount: 2
Back
Fore
SplineSet
267 680 m 1
 175 680 l 1
 175 1072 l 1
 267 1072 l 1
 267 680 l 1
EndSplineSet
EndChar

StartChar: parenleft
Encoding: 40 40 11
Width: 623
VWidth: 1524
GlyphClass: 2
Flags: HMW
LayerCount: 2
Back
Fore
SplineSet
462 1140 m 1
 333 903 269 665 269 426 c 128
 269 187 333 -50 462 -286 c 1
 383 -286 l 1
 232 -39 157 199 157 430 c 128
 157 661 232 898 383 1140 c 1
 462 1140 l 1
EndSplineSet
EndChar

StartChar: parenright
Encoding: 41 41 12
Width: 623
VWidth: 1524
GlyphClass: 2
Flags: HMW
LayerCount: 2
Back
Fore
SplineSet
242 1140 m 1
 392 894 467 655 467 424 c 128
 467 193 392 -44 242 -286 c 1
 163 -286 l 1
 292 -47 356 190 356 427 c 128
 356 664 292 901 163 1140 c 1
 242 1140 l 1
EndSplineSet
EndChar

StartChar: asterisk
Encoding: 42 42 13
Width: 798
VWidth: 1524
GlyphClass: 2
Flags: HMW
LayerCount: 2
Back
Fore
SplineSet
701 529 m 1
 425 715 l 1
 425 384 l 1
 375 384 l 1
 375 715 l 1
 100 530 l 1
 75 588 l 1
 370 749 l 1
 75 908 l 1
 100 967 l 1
 375 783 l 1
 375 1114 l 1
 425 1114 l 1
 425 784 l 1
 701 968 l 1
 726 908 l 1
 430 749 l 1
 726 588 l 1
 701 529 l 1
EndSplineSet
EndChar

StartChar: plus
Encoding: 43 43 14
Width: 1340
VWidth: 1524
GlyphClass: 2
Flags: HMW
LayerCount: 2
Back
Fore
SplineSet
1152 473 m 1
 1152 380 l 1
 717 380 l 1
 717 -55 l 1
 625 -55 l 1
 625 380 l 1
 190 380 l 1
 190 473 l 1
 625 473 l 1
 625 909 l 1
 717 909 l 1
 717 473 l 1
 1152 473 l 1
EndSplineSet
EndChar

StartChar: uni002C
Encoding: 44 44 15
Width: 507
VWidth: 1524
GlyphClass: 2
Flags: HMW
LayerCount: 2
Back
Fore
SplineSet
333 -5 m 1
 213 -241 l 1
 149 -241 l 1
 208 -13 l 1
 208 103 l 1
 333 103 l 1
 333 -5 l 1
EndSplineSet
EndChar

StartChar: hyphen_minus
Encoding: 45 45 16
Width: 576
VWidth: 1524
GlyphClass: 2
Flags: HMW
LayerCount: 2
Back
Fore
SplineSet
480 408 m 1
 480 320 l 1
 99 320 l 1
 99 408 l 1
 480 408 l 1
EndSplineSet
EndChar

StartChar: period
Encoding: 46 46 17
Width: 507
VWidth: 1524
GlyphClass: 2
Flags: HMW
LayerCount: 2
Back
Fore
SplineSet
317 103 m 1
 317 -55 l 1
 192 -55 l 1
 192 103 l 1
 317 103 l 1
EndSplineSet
Substitution2: "'calt' Contextual Alternates in Arabic lookup 9 subtable" period.fa
EndChar

StartChar: slash
Encoding: 47 47 18
Width: 537
VWidth: 1524
GlyphClass: 2
Flags: HMW
LayerCount: 2
Back
Fore
SplineSet
118 -224 m 1
 27 -224 l 1
 422 1092 l 1
 513 1092 l 1
 118 -224 l 1
EndSplineSet
EndChar

StartChar: colon
Encoding: 58 58 19
Width: 537
VWidth: 1524
GlyphClass: 2
Flags: HMW
LayerCount: 2
Back
Fore
SplineSet
333 734 m 1
 333 575 l 1
 208 575 l 1
 208 734 l 1
 333 734 l 1
333 103 m 1
 333 -55 l 1
 208 -55 l 1
 208 103 l 1
 333 103 l 1
EndSplineSet
Substitution2: "'calt' Contextual Alternates in Arabic lookup 9 subtable" colon.fa
EndChar

StartChar: uni003B
Encoding: 59 59 20
Width: 537
VWidth: 1524
GlyphClass: 2
Flags: HMW
LayerCount: 2
Back
Fore
SplineSet
333 -5 m 1
 213 -241 l 1
 149 -241 l 1
 208 -13 l 1
 208 103 l 1
 333 103 l 1
 333 -5 l 1
333 734 m 1
 333 575 l 1
 208 575 l 1
 208 734 l 1
 333 734 l 1
EndSplineSet
EndChar

StartChar: uni003C
Encoding: 60 60 21
Width: 1340
VWidth: 1524
GlyphClass: 2
Flags: HMW
LayerCount: 2
Back
Fore
SplineSet
1152 8 m 1
 190 376 l 1
 190 478 l 1
 1152 845 l 1
 1152 746 l 1
 306 426 l 1
 1152 107 l 1
 1152 8 l 1
EndSplineSet
EndChar

StartChar: equal
Encoding: 61 61 22
Width: 1340
VWidth: 1524
GlyphClass: 2
Flags: HMW
LayerCount: 2
Back
Fore
SplineSet
1152 314 m 1
 1152 220 l 1
 190 220 l 1
 190 314 l 1
 1152 314 l 1
1152 631 m 1
 1152 540 l 1
 190 540 l 1
 190 631 l 1
 1152 631 l 1
EndSplineSet
EndChar

StartChar: uni003E
Encoding: 62 62 23
Width: 1340
VWidth: 1524
GlyphClass: 2
Flags: HMW
LayerCount: 2
Back
Fore
SplineSet
1152 376 m 1
 190 8 l 1
 190 107 l 1
 1035 426 l 1
 190 746 l 1
 190 845 l 1
 1152 478 l 1
 1152 376 l 1
EndSplineSet
EndChar

StartChar: uni003F
Encoding: 63 63 24
Width: 848
VWidth: 1524
GlyphClass: 2
Flags: HMW
LayerCount: 2
Back
Fore
SplineSet
600 830 m 128
 600 945.83475066 503.118380571 1004 380 1004 c 128
 311 1004 229 974 135 915 c 1
 135 1014 l 1
 228 1067 321 1094 415 1094 c 128
 586.805996507 1094 718 1000.33628018 718 837 c 0
 718 800 709 765 692 732 c 128
 675 699 643 661 598 618 c 2
 528 551 l 1
 491 514 467 483 456 458 c 128
 445 433 440 392 440 336 c 2
 440 259 l 1
 330 259 l 1
 330 358 l 2
 330 408 337 449 350 481 c 128
 363 513 393 550 439 593 c 1
 508 663 l 1
 569 722 600 778 600 830 c 128
445 103 m 1
 445 -55 l 1
 324 -55 l 1
 324 103 l 1
 445 103 l 1
EndSplineSet
EndChar

StartChar: uni0040
Encoding: 64 64 25
Width: 1599
VWidth: 1524
GlyphClass: 2
Flags: HMW
LayerCount: 2
Back
Fore
SplineSet
490 346 m 128
 490 535.240889083 598.185234359 677 784 677 c 128
 874 677 948 640 1006 567 c 2
 1042 522 l 1
 1042 662 l 1
 1115 662 l 1
 1115 83 l 1
 1138 86 l 1
 1307.2811356 111.078686756 1397 249.808848274 1397 450 c 128
 1397 556 1365 649 1302 729 c 0
 1179 883 1020 960 825 960 c 0
 694 960 574 925 466 856 c 0
 322.135400476 761.218616784 196 584.055501737 196 364 c 0
 196 180 255 30 374 -87 c 128
 493 -204 639 -262 812 -262 c 0
 947 -262 1072 -220 1185 -137 c 1
 1231 -194 l 1
 1104 -287 965 -334 812 -334 c 0
 620 -334 457 -269 324 -140 c 0
 192 -11 126 151 126 345 c 128
 126 539 192 702 324 834 c 0
 457 966 624 1032 823 1032 c 0
 1047 1032 1228 942 1365 763 c 0
 1435 672 1470 562 1470 434 c 128
 1470 172.191904743 1295.77710223 22.6233787282 1042 11 c 1
 1042 170 l 1
 1006 123 l 2
 950 49 877 12 786 12 c 128
 598.158471599 12 490 155.386354648 490 346 c 128
804 86 m 128
 950.934068357 86 1031 193.297456606 1031 344 c 128
 1031 493.76326151 949.803430422 604 804 604 c 128
 658.583719716 604 576 493.183743393 576 344 c 128
 576 193.473514829 657.137176424 86 804 86 c 128
EndSplineSet
EndChar

StartChar: bracketleft
Encoding: 91 91 26
Width: 623
VWidth: 1524
GlyphClass: 2
Flags: HMW
LayerCount: 2
Back
Fore
SplineSet
449 -194 m 1
 449 -266 l 1
 157 -266 l 1
 157 1121 l 1
 449 1121 l 1
 449 1050 l 1
 262 1050 l 1
 262 -194 l 1
 449 -194 l 1
EndSplineSet
EndChar

StartChar: uni005C
Encoding: 92 92 27
Width: 537
VWidth: 1524
GlyphClass: 2
Flags: HMW
LayerCount: 2
Back
Fore
SplineSet
513 -224 m 1
 422 -224 l 1
 27 1092 l 1
 118 1092 l 1
 513 -224 l 1
EndSplineSet
EndChar

StartChar: bracketright
Encoding: 93 93 28
Width: 623
VWidth: 1524
GlyphClass: 2
Flags: HMW
LayerCount: 2
Back
Fore
SplineSet
467 1121 m 1
 467 -266 l 1
 176 -266 l 1
 176 -194 l 1
 362 -194 l 1
 362 1050 l 1
 176 1050 l 1
 176 1121 l 1
 467 1121 l 1
EndSplineSet
EndChar

StartChar: uni005E
Encoding: 94 94 29
Width: 1340
VWidth: 1524
GlyphClass: 2
Flags: HMW
LayerCount: 2
Back
Fore
SplineSet
740 1072 m 1
 1125 677 l 1
 1022 677 l 1
 670 992 l 1
 318 677 l 1
 217 677 l 1
 602 1072 l 1
 740 1072 l 1
EndSplineSet
EndChar

StartChar: uni005F
Encoding: 95 95 30
Width: 798
VWidth: 1524
GlyphClass: 2
Flags: HMW
LayerCount: 2
Back
Fore
SplineSet
796 -360 m 1
 796 -432 l 1
 5 -432 l 1
 5 -360 l 1
 796 -360 l 1
EndSplineSet
EndChar

StartChar: uni0060
Encoding: 96 96 31
Width: 798
VWidth: 1524
GlyphClass: 2
Flags: HMW
LayerCount: 2
Back
Fore
SplineSet
277 1186 m 1
 468 933 l 1
 397 933 l 1
 177 1186 l 1
 277 1186 l 1
EndSplineSet
EndChar

StartChar: braceleft
Encoding: 123 123 32
Width: 1017
VWidth: 1524
GlyphClass: 2
Flags: HMW
LayerCount: 2
Back
Fore
SplineSet
568 -44 m 2
 568 -203.5265971 605.870795978 -244 766 -244 c 2
 799 -244 l 1
 799 -317 l 1
 771 -317 l 1
 646 -316 564 -299 524 -264 c 128
 484 -229 464 -157 464 -47 c 2
 464 139 l 2
 464 303.366931305 411.056077527 368 248 368 c 2
 220 368 l 1
 220 440 l 1
 248 440 l 2
 411.717349569 440 464 500.953323917 464 666 c 2
 464 853 l 2
 464 962 484 1034 524 1069 c 128
 564 1104 646 1121 771 1121 c 2
 799 1121 l 1
 799 1050 l 1
 766 1050 l 2
 607.126249492 1050 568 1009.92856277 568 851 c 2
 568 657 l 2
 568 511.402528273 539.505394438 448.010756516 426 424 c 2
 343 406 l 1
 425 385 l 1
 538.477398684 357.165921077 568 296.941166235 568 149 c 2
 568 -44 l 2
EndSplineSet
EndChar

StartChar: uni007C
Encoding: 124 124 33
Width: 537
VWidth: 1524
GlyphClass: 2
Flags: HMW
LayerCount: 2
Back
Fore
SplineSet
317 -452 m 1
 224 -452 l 1
 224 1149 l 1
 317 1149 l 1
 317 -452 l 1
EndSplineSet
EndChar

StartChar: braceright
Encoding: 125 125 34
Width: 1017
VWidth: 1524
GlyphClass: 2
Flags: HMW
LayerCount: 2
Back
Fore
SplineSet
771 368 m 2
 606.909536717 368 554 303.88674214 554 139 c 2
 554 -47 l 2
 554 -156 535 -229 496 -264 c 128
 457 -299 375 -317 250 -317 c 2
 220 -317 l 1
 220 -244 l 1
 254 -244 l 2
 412.423068559 -244 450 -203.953579292 450 -44 c 2
 450 149 l 2
 450 295.382267226 480.076013616 357.301663717 593 385 c 1
 675 404 l 1
 593 423 l 2
 479.50391864 448.697225968 450 511.185866922 450 657 c 2
 450 851 l 2
 450 1009.91902407 411.949049089 1050 254 1050 c 2
 220 1050 l 1
 220 1121 l 1
 257 1121 l 2
 378 1121 458 1104 497 1070 c 0
 535 1035 554 963 554 853 c 2
 554 666 l 2
 554 500.762770571 608.599925204 440 771 440 c 2
 799 440 l 1
 799 368 l 1
 771 368 l 2
EndSplineSet
EndChar

StartChar: uni007E
Encoding: 126 126 35
Width: 1340
VWidth: 1524
GlyphClass: 2
Flags: HMW
LayerCount: 2
Back
Fore
SplineSet
468 525 m 0
 522 525 593 507 680 472 c 128
 767 437 837 419 892 419 c 0
 973 419 1059 454 1152 523 c 1
 1152 435 l 1
 1053 364 965 329 886 329 c 128
 807 329 729 348 654 386 c 1
 653 386 l 1
 652 387 l 1
 570 419 503 435 452 435 c 2
 449 435 l 2
 365 435 279 400 190 331 c 1
 190 419 l 1
 289 490 381 525 468 525 c 0
EndSplineSet
EndChar

StartChar: uni00A4
Encoding: 164 164 36
Width: 1017
VWidth: 1524
GlyphClass: 2
Flags: HMW
LayerCount: 2
Back
Fore
SplineSet
740 426 m 128
 740 554.058243667 639.590040257 655 512 655 c 128
 384.937883972 655 280 556.70163009 280 429 c 128
 280 300.606695412 382.035002805 197 510 197 c 128
 639.645524232 197 740 296.03573197 740 426 c 128
699 181 m 1
 638.545436238 142.136351867 575.725923185 113 510 113 c 128
 451 113 388 134 320 176 c 1
 162 18 l 1
 102 79 l 1
 260 237 l 1
 219 304 198 368 198 428 c 128
 198 488 220 550 263 613 c 1
 103 772 l 1
 164 834 l 1
 324 675 l 1
 379 717 439 738 504 738 c 128
 577.125003886 738 639.371123991 711.645072005 700 677 c 1
 858 837 l 1
 919 775 l 1
 762 617 l 1
 803 550 824 486 824 424 c 128
 824 353.03445334 795.621262115 295.469766961 756 240 c 1
 918 81 l 1
 857 19 l 1
 699 181 l 1
EndSplineSet
EndChar

StartChar: uni00A7
Encoding: 167 167 37
Width: 798
VWidth: 1524
GlyphClass: 2
Flags: HMW
LayerCount: 2
Back
Fore
SplineSet
143 886 m 128
 143 1018.95685896 262.106754074 1094 400 1094 c 128
 475 1094 552 1081 629 1054 c 1
 629 971 l 1
 553 1004 489 1020 436 1020 c 0
 311 1020 248 974 248 883 c 0
 248 826 315 760 449 687 c 1
 450 687 l 1
 557 626 628 577 660 540 c 128
 692 503 708 460 708 412 c 0
 708 328 663 260 573 208 c 1
 548 194 l 1
 570 176 l 1
 627 127 656 71 656 8 c 128
 656 -127.460117693 535.328075689 -208 394 -208 c 128
 317 -208 237 -195 154 -168 c 1
 154 -85 l 1
 235 -118 304 -135 363 -135 c 128
 462.539599467 -135 552 -90.0902624458 552 1 c 128
 552 40 536 75 505 106 c 128
 474 137 428 170 368 204 c 1
 348 214 l 1
 239 275 169 325 138 362 c 128
 107 399 92 442 92 491 c 0
 92 578 136 646 225 693 c 2
 253 708 l 1
 228 727 l 2
 171 770 143 823 143 886 c 128
295 681 m 1
 285 673 l 1
 214 622 179 571 179 521 c 128
 179 471 198 428 236 392 c 128
 274 356 363 299 504 222 c 1
 514 230 l 1
 585 283 621 333 621 382 c 128
 621 431 601 475 561 513 c 128
 522.943921247 549.153274815 422.735824402 617.132087799 295 681 c 1
EndSplineSet
EndChar

StartChar: guillemotleft
Encoding: 171 171 38
Width: 978
VWidth: 1524
GlyphClass: 2
Flags: HMW
LayerCount: 2
Back
Fore
SplineSet
471 175 m 1
 471 80 l 1
 143 371 l 1
 143 417 l 1
 471 709 l 1
 471 612 l 1
 224 394 l 1
 471 175 l 1
809 175 m 1
 809 81 l 1
 483 371 l 1
 483 417 l 1
 809 709 l 1
 809 612 l 1
 564 394 l 1
 809 175 l 1
EndSplineSet
Substitution2: "'calt' Contextual Alternates in Arabic lookup 9 subtable" guillemotleft.fa
EndChar

StartChar: uni00AC
Encoding: 172 172 39
Width: 1340
VWidth: 1524
GlyphClass: 2
Flags: HMW
LayerCount: 2
Back
Fore
SplineSet
1152 579 m 1
 1152 169 l 1
 1061 169 l 1
 1061 486 l 1
 190 486 l 1
 190 579 l 1
 1152 579 l 1
EndSplineSet
EndChar

StartChar: uni00B0
Encoding: 176 176 40
Width: 798
VWidth: 1524
GlyphClass: 2
Flags: HMW
LayerCount: 2
Back
Fore
SplineSet
629 862 m 0
 629 736.997210283 525.403837613 636 398 636 c 128
 266.680325941 636 173 732.359759114 173 864 c 128
 173 993.582895847 271.5335927 1094 400 1094 c 128
 526.99847775 1094 627.018141589 986.857079915 629 862 c 0
232 864 m 128
 232 771.333687891 307.341291781 696 400 696 c 128
 493.156721529 696 569 768.65736718 569 862 c 128
 569 955.355291866 493.162367853 1032 400 1032 c 128
 307.333687891 1032 232 956.658708219 232 864 c 128
EndSplineSet
EndChar

StartChar: uni00B6
Encoding: 182 182 41
Width: 1017
VWidth: 1524
GlyphClass: 2
Flags: HMW
LayerCount: 2
Back
Fore
SplineSet
142 764 m 128
 142 956.464704263 294.704862095 1072 494 1072 c 2
 826 1072 l 1
 826 -208 l 1
 755 -208 l 1
 755 1016 l 1
 566 1016 l 1
 566 -208 l 1
 496 -208 l 1
 496 451 l 1
 286.374887961 461.658904002 142 558.932047431 142 764 c 128
EndSplineSet
EndChar

StartChar: periodcentered
Encoding: 183 183 42
Width: 507
VWidth: 1524
GlyphClass: 2
Flags: HMW
LayerCount: 2
Back
Fore
SplineSet
317 402 m 1
 192 402 l 1
 192 560 l 1
 317 560 l 1
 317 402 l 1
EndSplineSet
EndChar

StartChar: guillemotright
Encoding: 187 187 43
Width: 978
VWidth: 1524
GlyphClass: 2
Flags: HMW
LayerCount: 2
Back
Fore
SplineSet
837 417 m 1
 837 371 l 1
 511 81 l 1
 511 175 l 1
 756 394 l 1
 511 612 l 1
 511 709 l 1
 837 417 l 1
498 417 m 1
 498 371 l 1
 171 81 l 1
 171 175 l 1
 417 394 l 1
 171 612 l 1
 171 709 l 1
 498 417 l 1
EndSplineSet
Substitution2: "'calt' Contextual Alternates in Arabic lookup 9 subtable" guillemotright.fa
EndChar

StartChar: divide
Encoding: 247 247 44
Width: 1340
VWidth: 1524
GlyphClass: 2
Flags: HMW
LayerCount: 2
Back
Fore
SplineSet
1152 473 m 1
 1152 380 l 1
 190 380 l 1
 190 473 l 1
 1152 473 l 1
747 213 m 1
 747 62 l 1
 594 62 l 1
 594 213 l 1
 747 213 l 1
747 792 m 1
 747 639 l 1
 594 639 l 1
 594 792 l 1
 747 792 l 1
EndSplineSet
EndChar

StartChar: uni2014
Encoding: 8212 8212 45
Width: 1599
VWidth: 1524
GlyphClass: 2
Flags: HMW
LayerCount: 2
Back
Fore
SplineSet
1582 400 m 1
 1582 326 l 1
 20 326 l 1
 20 400 l 1
 1582 400 l 1
EndSplineSet
EndChar

StartChar: uni2022
Encoding: 8226 8226 46
Width: 942
VWidth: 1524
GlyphClass: 2
Flags: HMW
LayerCount: 2
Back
Fore
SplineSet
260 520 m 128
 260 637.727573288 354.004567741 732 472 732 c 128
 590.003709351 732 684 637.724948832 684 520 c 128
 684 402.272426712 589.995432259 308 472 308 c 128
 353.996290649 308 260 402.275051168 260 520 c 128
EndSplineSet
EndChar

StartChar: uni2026
Encoding: 8230 8230 47
Width: 1599
VWidth: 1524
GlyphClass: 2
Flags: HMW
LayerCount: 2
Back
Fore
SplineSet
332 103 m 1
 332 -55 l 1
 204 -55 l 1
 204 103 l 1
 332 103 l 1
1396 103 m 1
 1396 -55 l 1
 1270 -55 l 1
 1270 103 l 1
 1396 103 l 1
864 103 m 1
 864 -55 l 1
 738 -55 l 1
 738 103 l 1
 864 103 l 1
EndSplineSet
Substitution2: "'calt' Contextual Alternates in Arabic lookup 9 subtable" uni2026.fa
EndChar

StartChar: multiply
Encoding: 215 215 49
Width: 1340
VWidth: 1524
GlyphClass: 2
Flags: HMW
LayerCount: 2
Back
Fore
SplineSet
1030 -12 m 1
 670 362 l 1
 312 -12 l 1
 248 55 l 1
 604 426 l 1
 248 799 l 1
 312 866 l 1
 670 492 l 1
 1030 866 l 1
 1094 799 l 1
 738 426 l 1
 1094 55 l 1
 1030 -12 l 1
EndSplineSet
EndChar

StartChar: uni2010
Encoding: 8208 8208 54
Width: 576
VWidth: 1524
GlyphClass: 2
Flags: HMW
LayerCount: 2
Back
Fore
SplineSet
480 408 m 1
 480 320 l 1
 99 320 l 1
 99 408 l 1
 480 408 l 1
EndSplineSet
EndChar

StartChar: uni20AC
Encoding: 8364 8364 55
Width: 1017
VWidth: 1524
GlyphClass: 2
Flags: HMW
LayerCount: 2
Back
Fore
SplineSet
893 888 m 1
 814 969 728 1009 636 1009 c 128
 432.977156529 1009 336.669828344 869.52591155 303 687 c 1
 299 664 l 1
 744 664 l 1
 719 609 l 1
 293 609 l 1
 290 579 288 545 288 508 c 128
 288 471 290 438 293 408 c 1
 629 408 l 1
 603 352 l 1
 299 352 l 1
 303 329 l 1
 332.839772683 149.961363901 434.69778838 7 630 7 c 0
 687 7 736 18 776 40 c 128
 816 62 856 91 893 129 c 1
 893 24 l 1
 806 -44 710 -78 604 -78 c 128
 361.911328362 -78 218.611822736 108.292561079 184 335 c 1
 181 352 l 1
 31 352 l 1
 56 408 l 1
 172 408 l 1
 171 508 l 1
 172 609 l 1
 31 609 l 1
 56 664 l 1
 181 664 l 1
 205.320525398 801.81631059 245.980765688 905.366614042 330 984 c 128
 408 1057 500 1094 606 1094 c 128
 712 1094 808 1060 893 992 c 1
 893 888 l 1
EndSplineSet
EndChar

StartChar: uni2212
Encoding: 8722 8722 56
Width: 1340
VWidth: 1524
GlyphClass: 2
Flags: HMW
LayerCount: 2
Back
Fore
SplineSet
1152 473 m 1
 1152 380 l 1
 190 380 l 1
 190 473 l 1
 1152 473 l 1
EndSplineSet
EndChar

StartChar: uni2219
Encoding: 8729 8729 57
Width: 507
VWidth: 1524
GlyphClass: 2
Flags: HMW
LayerCount: 2
Back
Fore
SplineSet
317 402 m 1
 192 402 l 1
 192 560 l 1
 317 560 l 1
 317 402 l 1
EndSplineSet
EndChar

StartChar: uni25CC
Encoding: 9676 9676 58
Width: 1191
VWidth: 1524
GlyphClass: 2
Flags: HMW
AnchorPoint: "Anchor-5" 598 -380 basechar 0
AnchorPoint: "Anchor-4" 574 1004 basechar 0
LayerCount: 2
Back
Fore
SplineSet
541 770 m 1
 536 809 l 1
 552 810 571 811 594 811 c 128
 617 811 637 810 656 809 c 1
 650 771 l 1
 633 773 617 774 602 774 c 128
 587 774 567 773 541 770 c 1
1061 505 m 1
 1026 491 l 1
 1012 524 995 555 974 583 c 1
 1002 607 l 1
 1026 576 1046 542 1061 505 c 1
1099 246 m 1
 1062 253 l 1
 1063 264 1064 279 1064 296 c 128
 1064 313 1063 334 1061 359 c 1
 1100 364 l 1
 1102 349 1103 331 1103 310 c 128
 1103 289 1102 267 1099 246 c 1
1025 120 m 1
 1061 106 l 1
 1045 69 1025 34 1002 3 c 1
 972 28 l 1
 993 57 1011 87 1025 120 c 1
874 -70 m 1
 898 -100 l 1
 863 -126 829 -146 796 -160 c 1
 782 -123 l 1
 814 -110 845 -92 874 -70 c 1
542 -159 m 1
 558 -160 575 -161 592 -161 c 128
 609 -161 628 -160 649 -158 c 1
 656 -197 l 1
 639 -200 620 -201 601 -201 c 128
 582 -201 561 -200 538 -197 c 1
 542 -159 l 1
409 -122 m 1
 395 -159 l 1
 358 -144 324 -125 293 -100 c 1
 319 -69 l 1
 348 -90 378 -108 409 -122 c 1
222 28 m 1
 190 3 l 1
 165 34 146 68 131 105 c 1
 169 119 l 1
 183 87 201 57 222 28 c 1
133 358 m 1
 130 338 129 323 129 312 c 128
 129 301 131 281 134 251 c 1
 94 246 l 1
 92 263 91 283 91 304 c 128
 91 325 92 346 94 365 c 1
 133 358 l 1
191 607 m 1
 222 583 l 1
 200 554 182 523 169 491 c 1
 131 505 l 1
 146 539 166 573 191 607 c 1
396 772 m 1
 410 735 l 1
 375 721 344 703 317 680 c 1
 293 712 l 1
 324 737 359 757 396 772 c 1
900 710 m 1
 874 682 l 1
 849 701 818 718 783 733 c 1
 796 770 l 1
 833 754 868 734 900 710 c 1
EndSplineSet
EndChar

StartChar: virgul
Encoding: 1548 1548 59
Width: 507
VWidth: 1524
GlyphClass: 2
Flags: HMW
LayerCount: 2
Back
Fore
SplineSet
268 63 m 1
 268 -55 l 1
 143 -55 l 1
 143 55 l 1
 264 289 l 1
 327 289 l 1
 268 63 l 1
EndSplineSet
Substitution2: "'calt' Contextual Alternates in Arabic lookup 9 subtable" virgul.fa
EndChar

StartChar: noqte_virgul
Encoding: 1563 1563 60
Width: 537
VWidth: 1524
GlyphClass: 2
Flags: HMW
LayerCount: 2
Back
Fore
SplineSet
222 786 m 1
 222 441 l 1
 98 441 l 1
 98 551 l 1
 218 786 l 1
 222 786 l 1
222 103 m 1
 222 -55 l 1
 98 -55 l 1
 98 103 l 1
 222 103 l 1
EndSplineSet
Substitution2: "'calt' Contextual Alternates in Arabic lookup 9 subtable" noqte_virgul.fa
EndChar

StartChar: soal
Encoding: 1567 1567 61
Width: 848
VWidth: 1524
GlyphClass: 2
Flags: HMW
LayerCount: 2
Back
Fore
SplineSet
135 838 m 0
 135 1003.81235539 265.124987641 1094 438 1094 c 128
 531 1094 625 1067 718 1014 c 1
 718 915 l 1
 625 975 535 1005 448 1005 c 128
 361 1005 302 971 269 902 c 0
 258 880 253 855 253 827 c 0
 253 779 283 724 343 663 c 1
 414 593 l 2
 458 549 486 514 499 486 c 128
 512 458 519 415 522 357 c 2
 526 259 l 1
 413 259 l 1
 413 336 l 2
 413 391 408 430 399 454 c 128
 390 478 365 510 324 551 c 2
 256 617 l 2
 210 662 178 701 161 734 c 128
 144 767 135 802 135 838 c 0
527 103 m 1
 527 -55 l 1
 409 -55 l 1
 409 103 l 1
 527 103 l 1
EndSplineSet
EndChar

StartChar: hamze
Encoding: 1569 1569 62
Width: 600
VWidth: 1524
GlyphClass: 2
Flags: HMW
AnchorPoint: "Anchor-1" 293 -27 basechar 0
AnchorPoint: "Anchor-0" 282 686 basechar 0
LayerCount: 2
Back
Fore
SplineSet
297 418 m 128
 240.212553858 418 172 366.109593714 172 313 c 128
 172 290 180 272 197 261 c 128
 214 250 248 233 300 211 c 1
 372 232 436 247 493 257 c 1
 511 149 l 1
 344 113 209 64 108 2 c 1
 64 94 l 1
 88 109 118 126 153 146 c 2
 177 159 l 1
 156 178 l 2
 115 214 95 257 95 308 c 128
 95 359 118 410 163 458 c 128
 208 506 254 530 299 530 c 128
 360.720311815 530 401.932428786 507.060063301 438 475 c 1
 383 396 l 1
 359 411 330 418 297 418 c 128
EndSplineSet
Substitution2: "'isol' Isolated Forms in Arabic lookup 6 subtable" uniFE80
EndChar

StartChar: kashidas
Encoding: 1600 1600 63
Width: 548
VWidth: 1524
GlyphClass: 2
Flags: HMW
AnchorPoint: "Anchor-1" 234 -161 basechar 0
AnchorPoint: "Anchor-0" 246 707 basechar 0
LayerCount: 2
Back
Fore
SplineSet
531 130 m 1
 531 20 l 1
 -35 20 l 1
 -35 130 l 1
 531 130 l 1
EndSplineSet
EndChar

StartChar: uni0660
Encoding: 1632 1632 64
Width: 1017
VWidth: 1584
GlyphClass: 2
Flags: HMW
LayerCount: 2
Back
Fore
SplineSet
666 584 m 1
 525 409 l 1
 351 548 l 1
 488 718 l 1
 666 584 l 1
EndSplineSet
EndChar

StartChar: uni0661
Encoding: 1633 1633 65
Width: 1017
VWidth: 1584
GlyphClass: 2
Flags: HMW
LayerCount: 2
Back
Fore
SplineSet
651 5 m 1
 635 364 541 692 370 989 c 0
 348 1027 327 1062 307 1095 c 1
 378 1154 l 1
 599 793 716 410 731 5 c 1
 651 5 l 1
EndSplineSet
EndChar

StartChar: uni0662
Encoding: 1634 1634 66
Width: 1017
VWidth: 1584
GlyphClass: 2
Flags: HMW
LayerCount: 2
Back
Fore
SplineSet
481 25 m 1
 477 388 365 736 145 1071 c 1
 216 1132 l 1
 317 1025 415 966 508 955 c 0
 538 952 569 950 602 950 c 0
 697 950 770 1026 819 1178 c 1
 897 1148 l 1
 830 942 731 839 602 839 c 0
 518 839 451 849 402 868 c 2
 355 886 l 1
 377 840 l 2
 497 589 558 317 561 25 c 1
 481 25 l 1
EndSplineSet
EndChar

StartChar: uni0663
Encoding: 1635 1635 67
Width: 1017
VWidth: 1584
GlyphClass: 2
Flags: HMW
LayerCount: 2
Back
Fore
SplineSet
438 953 m 0
 533.333228943 953 569.941398508 1083.47824851 573 1189 c 1
 649 1189 l 1
 652 1079 679 1010 728 983 c 0
 743 974 759 970 776 970 c 0
 807 970 831 989 847 1026 c 128
 863 1063 874 1117 881 1188 c 1
 957 1182 l 1
 944 1062 924 978 896 931 c 128
 868 884 825 860 768 860 c 128
 711 860 664 889 628 948 c 1
 610 976 l 1
 594 947 l 2
 555 877 503 842 438 842 c 0
 405 842 369 849 331 863 c 2
 288 879 l 1
 306 836 l 2
 398 617 463 347 502 25 c 1
 424 25 l 1
 369 455 257 805 86 1074 c 1
 153 1132 l 1
 240 1013 335 953 438 953 c 0
EndSplineSet
EndChar

StartChar: uni0664
Encoding: 1636 1636 68
Width: 1017
VWidth: 1584
GlyphClass: 2
Flags: HMW
LayerCount: 2
Back
Fore
SplineSet
697 -43 m 1
 416 15 276 109 276 238 c 0
 276 315 312 399 384 492 c 0
 410 525 441 561 476 601 c 2
 492 619 l 1
 471 631 l 1
 338 709 272 789 272 871 c 128
 272 953 345 1038 492 1126 c 0
 533 1149 578 1171 626 1192 c 1
 659 1092 l 1
 520 1033 426 981 378 934 c 1
 359 911 349 888 349 864 c 128
 349 840 371 812 416 780 c 128
 461 748 532 705 631 651 c 1
 446 452 353 315 353 238 c 0
 353 203 372 173 409 148 c 1
 475 113 575 85 710 65 c 1
 697 -43 l 1
EndSplineSet
EndChar

StartChar: uni0665
Encoding: 1637 1637 69
Width: 1017
VWidth: 1584
GlyphClass: 2
Flags: HMW
LayerCount: 2
Back
Fore
SplineSet
263 473 m 0
 264.30973038 356.433996216 354.546429556 291 492 291 c 0
 669 291 757 341 757 442 c 0
 754.799005589 602.67259198 632.973457826 723.770019635 487 749 c 1
 338 689 263 597 263 473 c 0
491 180 m 0
 301.56183111 180 185 277.951231773 185 471 c 128
 185 519 194 567 211 615 c 0
 254 736 346 818 486 862 c 1
 679.266825946 827.681591654 832 674.584359607 832 458 c 128
 832 246.727317341 711.07110041 180 491 180 c 0
EndSplineSet
EndChar

StartChar: uni0666
Encoding: 1638 1638 70
Width: 1017
VWidth: 1584
GlyphClass: 2
Flags: HMW
LayerCount: 2
Back
Fore
SplineSet
730 1046 m 1
 700.405174837 828.971282138 686 776.500689272 686 547 c 128
 686 448 690 378 699 338 c 0
 725 222 773 140 842 92 c 1
 801 -1 l 1
 751 34 706 92 667 174 c 128
 628 256 608 368 608 511 c 128
 608 654 615 777 628 881 c 1
 631 909 l 1
 604 904 l 1
 498 882 422 871 376 871 c 128
 330 871 299 874 282 879 c 0
 230 894 175 927 117 978 c 1
 175 1054 l 1
 229 1007 287 984 349 984 c 0
 460 984 587 1005 730 1046 c 1
EndSplineSet
EndChar

StartChar: uni0667
Encoding: 1639 1639 71
Width: 1017
VWidth: 1584
GlyphClass: 2
Flags: HMW
LayerCount: 2
Back
Fore
SplineSet
953 1134 m 1
 710.139913223 784.350371519 645.929064883 500.944474308 562 5 c 1
 469 5 l 1
 431 227 399 391 373 498 c 0
 321 709 222 921 76 1134 c 1
 144 1194 l 1
 277 1005 367 830 416 668 c 0
 433 613 460 500 496 330 c 2
 516 234 l 1
 536 330 l 1
 579 528 624 686 672 804 c 128
 720 922 792 1053 887 1194 c 1
 953 1134 l 1
EndSplineSet
EndChar

StartChar: uni0668
Encoding: 1640 1640 72
Width: 1017
VWidth: 1584
GlyphClass: 2
Flags: HMW
LayerCount: 2
Back
Fore
SplineSet
541 1179 m 1
 638.037967782 613.896540562 699.715638224 383.401023018 934 53 c 1
 868 -9 l 1
 769 134 696 264 650 382 c 128
 604 500 558 657 514 854 c 2
 493 949 l 1
 474 854 l 1
 439 686 411 565 388 491 c 0
 344 348 256 181 123 -9 c 1
 55 53 l 1
 307.530762343 419.852120971 364.625448815 676.147238168 448 1179 c 1
 541 1179 l 1
EndSplineSet
EndChar

StartChar: uni0669
Encoding: 1641 1641 73
Width: 1017
VWidth: 1584
GlyphClass: 2
Flags: HMW
LayerCount: 2
Back
Fore
SplineSet
128 864 m 128
 128 1009.53936707 224.981286074 1190 367 1190 c 128
 434 1190 499 1150 564 1072 c 128
 629 994 662 889 662 757 c 0
 662 473 711 270 809 148 c 0
 830 123 853 103 878 87 c 1
 841 -8 l 1
 692 83 607 304 586 653 c 1
 584 684 l 1
 557 670 l 2
 505 643 449 630 390 630 c 0
 200.454315719 630 128 687.340090712 128 864 c 128
356 1079 m 2
 268.927390872 1079 206 963.836477117 206 876 c 0
 206 786 253 741 347 741 c 0
 410 741 454 745 478 752 c 128
 502 759 537 775 583 800 c 1
 570 890 543 959 500 1006 c 128
 457 1053 411 1078 360 1079 c 1
 356 1079 l 2
EndSplineSet
EndChar

StartChar: uni066A
Encoding: 1642 1642 74
Width: 996
VWidth: 1524
GlyphClass: 2
Flags: HMW
LayerCount: 2
Back
Fore
SplineSet
351 1145 m 1
 351 930 l 1
 134 930 l 1
 134 1145 l 1
 351 1145 l 1
865 75 m 1
 865 -141 l 1
 651 -141 l 1
 651 75 l 1
 865 75 l 1
907 1227 m 1
 150 -215 l 1
 96 -215 l 1
 854 1227 l 1
 907 1227 l 1
EndSplineSet
EndChar

StartChar: uni066B
Encoding: 1643 1643 75
Width: 507
VWidth: 1524
GlyphClass: 2
Flags: HMW
LayerCount: 2
Back
Fore
SplineSet
-4 -398 m 1
 -56 -398 l 1
 394 828 l 1
 453 828 l 1
 -4 -398 l 1
EndSplineSet
Substitution2: "'calt' Contextual Alternates in Arabic lookup 10 subtable" uni066B.ar
EndChar

StartChar: uni066C
Encoding: 1644 1644 76
Width: 507
VWidth: 1524
GlyphClass: 2
Flags: HMW
LayerCount: 2
Back
Fore
SplineSet
203 156 m 0
 200.770270804 200.594583925 243.119077007 226 290 226 c 0
 350 226 380 191 380 122 c 128
 380 -42.6117743093 251.540726041 -147.322030167 133 -213 c 1
 105 -193 l 1
 192.771759262 -149.833561018 331.898070791 -39.6914779849 337 70 c 1
 337 72 l 1
 331 122 l 1
 302 93 l 2
 295 86 284 82 269 82 c 128
 235.788725859 82 201.216345496 120.326909918 203 156 c 0
EndSplineSet
Substitution2: "'calt' Contextual Alternates in Arabic lookup 10 subtable" uni066C.ar
EndChar

StartChar: uni066B.ar
Encoding: 65537 -1 77
Width: 507
VWidth: 1524
GlyphClass: 2
Flags: HMW
LayerCount: 2
Back
Fore
SplineSet
262 157 m 0
 359.151656788 157 421 83.0818350015 421 -23 c 128
 421 -84 403 -139 368 -188 c 128
 333 -237 279 -288 205 -340 c 1
 170 -320 l 1
 299 -245 364 -165 364 -80 c 0
 364 -63 362 -50 358 -41 c 2
 347 -15 l 1
 326 -34 l 2
 310 -49 290 -57 267 -57 c 128
 215.886140424 -57 168 -3.93366178784 168 50 c 128
 168 99.9267111524 216.146948636 157 262 157 c 0
EndSplineSet
EndChar

StartChar: uni066C.ar
Encoding: 65538 -1 78
Width: 507
VWidth: 1524
GlyphClass: 2
Flags: HMW
LayerCount: 2
Back
Fore
SplineSet
295 482 m 0
 295 514.023388327 323.50581059 541 369 541 c 128
 384 541 401 532 420 514 c 128
 439 496 448 468 449 429 c 0
 449 351 404 282 313 222 c 1
 303 228 l 1
 385 279 426 334 426 391 c 0
 426 398 425 405 424 413 c 2
 417 447 l 1
 391 424 l 2
 382 416 371 412 356 412 c 128
 320.811569963 412 293.302412479 442.955487015 295 482 c 0
EndSplineSet
EndChar

StartChar: num.zero
Encoding: 1776 1776 79
Width: 1017
VWidth: 1584
GlyphClass: 2
Flags: HMW
LayerCount: 2
Back
Fore
SplineSet
508 398 m 0
 599.088896479 398 683 471.710246542 683 562 c 0
 681.043670147 650.034843372 600.728548465 727 511 727 c 2
 505 727 l 2
 414.074620995 727 334 653.928682289 334 562 c 0
 334 492 369 442 440 412 c 0
 461 403 484 398 508 398 c 0
722 562 m 128
 722 443.175057191 627.279338134 337 511 337 c 2
 508 337 l 2
 384.99293477 337 298.722338957 441.830881905 293 562 c 1
 294.923916458 683.206736827 386.089870385 788 507 788 c 128
 626.274969425 788 722 682.681820991 722 562 c 128
EndSplineSet
EndChar

StartChar: num.four
Encoding: 1780 1780 83
Width: 1017
VWidth: 1584
GlyphClass: 2
Flags: HMW
LayerCount: 2
Back
Fore
SplineSet
688 1146 m 128
 620.850651615 1146 544 1097.03381612 544 1030 c 128
 544 982.61853419 582.408583148 929.302068334 617 901 c 128
 628 892 637 885 643 878 c 1
 749.061420487 889.784602276 833.470846859 902.375469189 900 933 c 1
 923 849 l 1
 826 794 729 766 633 766 c 128
 537 766 453 788 382 831 c 2
 327 865 l 1
 354 806 l 1
 463 561 519 301 522 25 c 1
 445 25 l 1
 441 322 371 601 234 863 c 0
 195 936 155 1006 112 1073 c 1
 182 1131 l 1
 293 1013 385 938 460 907 c 1
 505 887 l 1
 486 933 l 2
 473 966 466 998 466 1030 c 0
 466 1095 488 1149 532 1191 c 128
 576 1233 625 1254 678 1254 c 128
 764.812284566 1254 775.70397127 1243.8733453 821 1225 c 1
 817 1127 l 1
 766 1140 723 1146 688 1146 c 128
EndSplineSet
EndChar

StartChar: num.five
Encoding: 1781 1781 84
Width: 1017
VWidth: 1584
GlyphClass: 2
Flags: HMW
LayerCount: 2
Back
Fore
SplineSet
208 258 m 0
 208 175.62685858 245.869211569 117 320 117 c 0
 372 117 410 139 434 182 c 128
 458 225 472 268 477 311 c 1
 555 311 l 1
 564 182 606 117 683 117 c 0
 769 117 812 183 812 314 c 0
 812 526 716 737 525 948 c 2
 506 969 l 1
 493 945 l 1
 400 784 336 666 303 591 c 0
 240 448 208 337 208 258 c 0
322 6 m 0
 194 6 130 92 130 263 c 0
 130 357 154 459 202 570 c 128
 250 681 331 834 444 1031 c 1
 376 1094 l 1
 431 1172 l 1
 624 993 753 824 818 667 c 0
 866 552 890 435 890 318 c 0
 890 159 846 60 757 20 c 0
 735 11 710 6 683 6 c 0
 611 6 559 39 526 105 c 2
 509 138 l 1
 491 106 l 1
 452 39 395 6 322 6 c 0
EndSplineSet
EndChar

StartChar: num.six
Encoding: 1782 1782 85
Width: 1017
VWidth: 1584
GlyphClass: 2
Flags: HMW
LayerCount: 2
Back
Fore
SplineSet
532 1092 m 128
 433.325850263 1092 267 1012.42756678 267 916 c 2
 267 914 l 2
 267 821 329 760 453 730 c 0
 495 720 545 715 603 715 c 128
 661 715 709 722 746 737 c 128
 783 752 828 772 881 797 c 1
 915 698 l 1
 722 614 586 537 506 467 c 128
 426 397 337 293 236 154 c 0
 205 111 171 63 132 9 c 1
 69 72 l 1
 212 274 322 415 397 495 c 0
 427 526 457 555 487 581 c 2
 520 609 l 1
 477 616 l 2
 315.008218871 641.577649652 190 741.344721626 190 912 c 128
 190 984 230 1050 308 1110 c 128
 386 1170 459 1200 528 1200 c 128
 597 1200 672 1184 753 1152 c 1
 721 1052 l 1
 651 1079 588 1092 532 1092 c 128
EndSplineSet
EndChar

StartChar: As
Encoding: 65539 -1 89
Width: 207
VWidth: 1524
GlyphClass: 2
Flags: HMW
LayerCount: 2
Back
Fore
SplineSet
143 843 m 1
 143 20 l 1
 68 20 l 5
 68 843 l 5
 143 843 l 1
EndSplineSet
EndChar

StartChar: uniFE8D
Encoding: 65165 65165 90
Width: 474
VWidth: 1524
GlyphClass: 2
Flags: HMW
AnchorPoint: "Anchor-1" 234 -161 basechar 0
AnchorPoint: "Anchor-0" 188 1332 basechar 0
LayerCount: 2
Back
Fore
SplineSet
272 1121 m 1
 272 20 l 1
 173 20 l 5
 173 1121 l 5
 272 1121 l 1
EndSplineSet
PairPos2: "'kern' Horizontal Kerning in Arabic lookup 0 subtable" gaf_ye.farsi.isol dx=50 dy=0 dh=50 dv=0 dx=0 dy=0 dh=0 dv=0
PairPos2: "'kern' Horizontal Kerning in Arabic lookup 0 subtable" kaf.farsi_ye.farsi.isol dx=50 dy=0 dh=50 dv=0 dx=0 dy=0 dh=0 dv=0
PairPos2: "'kern' Horizontal Kerning in Arabic lookup 0 subtable" uniFEDB dx=50 dy=0 dh=50 dv=0 dx=0 dy=0 dh=0 dv=0
PairPos2: "'kern' Horizontal Kerning in Arabic lookup 0 subtable" uniFE83 dx=62 dy=0 dh=62 dv=0 dx=0 dy=0 dh=0 dv=0
PairPos2: "'kern' Horizontal Kerning in Arabic lookup 0 subtable" uniFE81 dx=62 dy=0 dh=62 dv=0 dx=0 dy=0 dh=0 dv=0
PairPos2: "'kern' Horizontal Kerning in Arabic lookup 0 subtable" kaf.init dx=50 dy=0 dh=50 dv=0 dx=0 dy=0 dh=0 dv=0
PairPos2: "'kern' Horizontal Kerning in Arabic lookup 0 subtable" uniFB8E dx=50 dy=0 dh=50 dv=0 dx=0 dy=0 dh=0 dv=0
PairPos2: "'kern' Horizontal Kerning in Arabic lookup 0 subtable" uniFB50 dx=62 dy=0 dh=62 dv=0 dx=0 dy=0 dh=0 dv=0
PairPos2: "'kern' Horizontal Kerning in Arabic lookup 0 subtable" gaf.init dx=50 dy=0 dh=50 dv=0 dx=0 dy=0 dh=0 dv=0
PairPos2: "'kern' Horizontal Kerning in Arabic lookup 0 subtable" uniFB92 dx=50 dy=0 dh=50 dv=0 dx=0 dy=0 dh=0 dv=0
EndChar

StartChar: Af
Encoding: 65540 -1 91
Width: 415
VWidth: 1524
GlyphClass: 2
Flags: HMW
LayerCount: 2
Back
Fore
SplineSet
416 124 m 1
 416 20 l 1
 342 20 l 2
 135 20 69 95 69 278 c 2
 69 843 l 1
 143 843 l 1
 143 253 l 1
 144 141 212 124 331 124 c 2
 416 124 l 1
EndSplineSet
EndChar

StartChar: alef.fina
Encoding: 65166 65166 92
Width: 514
VWidth: 1524
GlyphClass: 2
Flags: HMW
AnchorPoint: "Anchor-1" 234 -161 basechar 0
AnchorPoint: "Anchor-0" 176 1332 basechar 0
LayerCount: 2
Back
Fore
SplineSet
496 130 m 1
 496 20 l 1
 470 20 l 2
 272 20 173 89 173 228 c 2
 173 1121 l 1
 272 1121 l 1
 272 278 l 2
 272 179 338 130 470 130 c 6
 496 130 l 1
EndSplineSet
PairPos2: "'kern' Horizontal Kerning in Arabic lookup 0 subtable" gaf_ye.farsi.isol dx=50 dy=0 dh=50 dv=0 dx=0 dy=0 dh=0 dv=0
PairPos2: "'kern' Horizontal Kerning in Arabic lookup 0 subtable" kaf.farsi_ye.farsi.isol dx=50 dy=0 dh=50 dv=0 dx=0 dy=0 dh=0 dv=0
PairPos2: "'kern' Horizontal Kerning in Arabic lookup 0 subtable" uniFEDB dx=50 dy=0 dh=50 dv=0 dx=0 dy=0 dh=0 dv=0
PairPos2: "'kern' Horizontal Kerning in Arabic lookup 0 subtable" uniFE83 dx=62 dy=0 dh=62 dv=0 dx=0 dy=0 dh=0 dv=0
PairPos2: "'kern' Horizontal Kerning in Arabic lookup 0 subtable" uniFE81 dx=62 dy=0 dh=62 dv=0 dx=0 dy=0 dh=0 dv=0
PairPos2: "'kern' Horizontal Kerning in Arabic lookup 0 subtable" kaf.init dx=50 dy=0 dh=50 dv=0 dx=0 dy=0 dh=0 dv=0
PairPos2: "'kern' Horizontal Kerning in Arabic lookup 0 subtable" uniFB8E dx=50 dy=0 dh=50 dv=0 dx=0 dy=0 dh=0 dv=0
PairPos2: "'kern' Horizontal Kerning in Arabic lookup 0 subtable" uniFB50 dx=62 dy=0 dh=62 dv=0 dx=0 dy=0 dh=0 dv=0
PairPos2: "'kern' Horizontal Kerning in Arabic lookup 0 subtable" gaf.init dx=50 dy=0 dh=50 dv=0 dx=0 dy=0 dh=0 dv=0
PairPos2: "'kern' Horizontal Kerning in Arabic lookup 0 subtable" uniFB92 dx=50 dy=0 dh=50 dv=0 dx=0 dy=0 dh=0 dv=0
EndChar

StartChar: Bs
Encoding: 65541 -1 93
Width: 1609
VWidth: 1524
GlyphClass: 2
Flags: HMW
LayerCount: 2
Back
Fore
SplineSet
1396 573 m 1
 1480 581 l 1
 1523 447 1545 350 1545 290 c 128
 1545 230 1533 188 1509 167 c 0
 1466 127 1341 88 1134 49 c 128
 927 10 765 -9 649 -9 c 0
 259 -9 64 89 64 284 c 0
 64 366 85 465 128 582 c 1
 211 564 l 1
 204 539 190 500 172 446 c 128
 154 392 145 337 145 278 c 128
 145 219 186 175 269 145 c 128
 352 115 457 100 586 100 c 0
 800 100 1028 129 1271 186 c 0
 1360 207 1411 223 1426 232 c 128
 1447.31839131 244.791034789 1462 249.320596327 1462 273 c 0
 1462 335 1440 435 1396 573 c 1
EndSplineSet
EndChar

StartChar: Bf
Encoding: 65542 -1 94
Width: 1744
VWidth: 1524
GlyphClass: 2
Flags: HMW
LayerCount: 2
Back
Fore
SplineSet
1517 261 m 0
 1517 151.731768969 1621.25976562 131.607016031 1745 130 c 1
 1745 20 l 1
 1590 23 1495 64 1458 143 c 2
 1447 167 l 1
 1427 150 l 2
 1363 96 1201 51 942 15 c 0
 829 -1 747 -9 696 -9 c 2
 616 -9 l 2
 439 -9 302 15 207 64 c 128
 112 113 64 182 64 272 c 128
 64 362 85 465 128 582 c 1
 210 564 l 1
 202 539 190 500 172 447 c 128
 154 394 145 337 145 278 c 128
 145 219 186 175 269 145 c 128
 352 115 461 100 596 100 c 128
 731 100 888 114 1066 144 c 128
 1244 174 1354 213 1396 262 c 0
 1441.43489019 315.268491947 1465.04604204 378.993376559 1481 446 c 1
 1489 468 l 1
 1560 440 l 1
 1531 341 1517 281 1517 261 c 0
EndSplineSet
EndChar

StartChar: Bi
Encoding: 65543 -1 95
Width: 456
VWidth: 1524
GlyphClass: 2
Flags: HMW
LayerCount: 2
Back
Fore
SplineSet
243 557 m 1
 336 565 l 1
 379 432 401 332 401 264 c 0
 401 97 230 20 63 20 c 2
 0 20 l 2
 -11 20 -23 22 -35 25 c 1
 -35 130 l 1
 63 130 l 2
 177 130 308 161 308 258 c 0
 308 317 286 416 243 557 c 1
EndSplineSet
EndChar

StartChar: Bm
Encoding: 65544 -1 96
Width: 530
VWidth: 1524
GlyphClass: 2
Flags: HMW
LayerCount: 2
Back
Fore
SplineSet
318 278 m 2
 318 157.99568866 400.333653079 135.025628728 531 130 c 1
 531 20 l 1
 404 23 322 48 287 97 c 2
 273 117 l 1
 256 98 l 2
 209 46 132 20 27 20 c 2
 0 20 l 2
 -11 20 -23 22 -35 25 c 1
 -35 130 l 1
 27 130 l 2
 143.958043549 130 239 171.3153215 239 276 c 2
 239 432 l 1
 318 432 l 1
 318 278 l 2
EndSplineSet
EndChar

StartChar: Js
Encoding: 65545 -1 97
Width: 1031
VWidth: 1524
GlyphClass: 2
Flags: HMW
LayerCount: 2
Back
Fore
SplineSet
149 38 m 128
 149 -165.836788225 294.364280418 -267 520 -267 c 0
 672 -267 802 -252 911 -223 c 1
 932 -310 l 1
 796 -355 659 -377 520 -377 c 2
 517 -377 l 2
 280 -377 135 -287 83 -106 c 0
 70 -63 64 -17 64 30 c 0
 64 234 218 392 527 504 c 1
 569 519 l 1
 327 651 l 1
 292 668 266 676 250 676 c 128
 234 676 220 668 207 651 c 1
 115 552 l 1
 69 596 l 1
 151 728 l 1
 169 750 l 130
 186.161971225 770.022299762 212.791983203 786 255 786 c 128
 279 786 316 773 365 748 c 1
 623 609 l 1
 674 585 739 573 818 573 c 0
 839 573 858 573 875 572 c 1
 967 572 l 1
 967 462 l 1
 886 462 l 2
 750 462 609 433 464 376 c 0
 254 293 149 181 149 38 c 128
EndSplineSet
EndChar

StartChar: Jf
Encoding: 65546 -1 98
Width: 1094
VWidth: 1524
GlyphClass: 2
Flags: HMW
LayerCount: 2
Back
Fore
SplineSet
148 46 m 0
 149 -163 282 -267 547 -267 c 0
 682 -267 803 -252 911 -223 c 1
 932 -310 l 1
 796 -355 659 -377 520 -377 c 2
 517 -377 l 2
 280 -377 135 -287 83 -106 c 0
 70 -63 64 -17 64 30 c 0
 64 234 218 392 527 504 c 1
 569 519 l 1
 327 651 l 1
 292 668 266 676 250 676 c 128
 234 676 220 668 207 651 c 1
 115 552 l 1
 69 596 l 1
 151 728 l 1
 169 750 l 130
 186.161971225 770.022299762 212.791983203 786 255 786 c 128
 279 786 316 773 365 748 c 1
 623 609 l 1
 674 585 739 573 818 573 c 0
 839 573 858 573 875 572 c 1
 967 572 l 1
 967 462 l 1
 838 462 l 1
 902 282 l 2
 933.95310881 193.659052113 984.774184421 137.239197108 1095 131 c 1
 1095 20 l 1
 940.764578799 27.0107009637 863.464018611 119.143925556 829 257 c 1
 776 454 l 1
 455 401 256 305 179 166 c 0
 158 129 148 89 148 46 c 0
EndSplineSet
EndChar

StartChar: Ji
Encoding: 65547 -1 99
Width: 1112
VWidth: 1524
GlyphClass: 2
Flags: HMW
LayerCount: 2
Back
Fore
SplineSet
1048 406 m 1
 1048 296 l 1
 970 296 l 2
 915 296 863 279 816 246 c 1
 815 246 l 1
 699 156 601 96 522 66 c 128
 443 36 381 20 337 20 c 2
 0 20 l 2
 -11 20 -23 22 -35 25 c 1
 -35 130 l 1
 337 130 l 2
 424 130 529 169 651 248 c 0
 681 267 704 284 721 299 c 2
 744 319 l 1
 717 332 l 2
 706.135623592 338.20821509 683.734349292 343.020867611 677 352 c 1
 406 510 l 1
 405 510 l 1
 372 527 345 536 326 536 c 128
 307 536 288 527 271 508 c 2
 183 413 l 1
 135 459 l 1
 222 589 l 1
 250 627 291 646 344 646 c 0
 369 646 403 633 444 607 c 1
 713 448 l 1
 714 448 l 1
 765 423 818 409 871 408 c 128
 924 407 971 406 1012 406 c 2
 1048 406 l 1
EndSplineSet
EndChar

StartChar: Jm
Encoding: 65548 -1 100
Width: 1183
VWidth: 1524
GlyphClass: 2
Flags: HMW
LayerCount: 2
Back
Fore
SplineSet
1184 130 m 1
 1184 20 l 1
 1073 21 996 33 953 56 c 128
 910 79 876 128 851 203 c 1
 831 260 l 1
 809 244 l 2
 684 152 595 95 542 74 c 0
 452 38 382 20 331 20 c 2
 0 20 l 2
 -11 20 -23 22 -35 25 c 1
 -35 130 l 1
 331 130 l 2
 418 130 523 169 645 248 c 0
 675 267 699 284 716 299 c 2
 739 318 l 1
 712 332 l 1
 687 343 674 350 673 351 c 2
 401 510 l 1
 400 510 l 1
 367 527 340 536 320 536 c 128
 300 536 282 526 267 507 c 1
 179 413 l 1
 131 459 l 1
 217 589 l 1
 244 627 285 646 338 646 c 0
 363 646 397 633 439 607 c 1
 710 448 l 1
 762 423 815 409 868 408 c 128
 921 407 967 406 1008 406 c 2
 1043 406 l 1
 1043 296 l 1
 964 296 l 2
 950.141316196 296 931.684643704 294.114107284 919 292 c 2
 891 289 l 1
 913 242 l 2
 956.824966835 147.776321306 1038.84038057 131.814495243 1184 130 c 1
EndSplineSet
EndChar

StartChar: Ds
Encoding: 65549 -1 101
Width: 746
VWidth: 1524
GlyphClass: 2
Flags: HMW
LayerCount: 2
Back
Fore
SplineSet
529 150 m 0
 577 169 601 190 601 215 c 0
 601 375 524 532 370 686 c 1
 425 767 l 1
 553 644 690 483 690 239 c 4
 690 156 667 93 567 46 c 0
 467 -1 340 -8 257 -8 c 0
 174 -8 110 4 64 27 c 1
 107 123 l 1
 144 106 193 99 245 99 c 0
 354 99 475 128 529 150 c 0
EndSplineSet
EndChar

StartChar: Df
Encoding: 65550 -1 102
Width: 925
VWidth: 1524
GlyphClass: 2
Flags: HMW
LayerCount: 2
Back
Fore
SplineSet
926 20 m 1
 794.339824139 22.3938213793 754.656449241 48.9786721418 684 132 c 1
 669 123 l 1
 533 36 380 -8 209 -8 c 0
 157 -8 109 3 64 26 c 1
 107 123 l 1
 139 110 183 103 240 103 c 0
 367 103 499 141 635 217 c 1
 634 219 553 384 393 713 c 1
 467 759 l 1
 688 302 l 1
 724 231 759 185 792 164 c 128
 825 143 869 132 926 130 c 1
 926 20 l 1
EndSplineSet
EndChar

StartChar: Rs
Encoding: 65551 -1 103
Width: 757
VWidth: 1524
GlyphClass: 2
Flags: HMW
LayerCount: 2
Back
Fore
SplineSet
64 -321 m 1
 363 -204 607 -89 607 136 c 0
 607 219 555 379 524 429 c 1
 603 495 l 1
 649 424 705 264 705 119 c 0
 705 -159 364 -323 94 -427 c 1
 64 -321 l 1
EndSplineSet
EndChar

StartChar: Rf
Encoding: 65552 -1 104
Width: 932
VWidth: 1524
GlyphClass: 2
Flags: HMW
LayerCount: 2
Back
Fore
SplineSet
933 130 m 1
 933 20 l 1
 839 23 768 41 721 76 c 2
 695 95 l 1
 660 -84 526 -209 213 -350 c 0
 174 -367 137 -383 101 -400 c 1
 64 -303 l 1
 99 -286 136 -268 174 -251 c 0
 342 -176 458 -106 522 -44 c 0
 590 22 615 96 615 174 c 0
 615 247 593 324 563 401 c 1
 651 449 l 1
 701 293 737 138 933 130 c 1
EndSplineSet
EndChar

StartChar: Ss
Encoding: 65553 -1 105
Width: 1906
VWidth: 1524
GlyphClass: 2
Flags: HMW
LayerCount: 2
Back
Fore
SplineSet
1576 130 m 0
 1665 130 1750 177 1760 256 c 1
 1760 258 l 2
 1760 313 1738 412 1693 557 c 1
 1777 565 l 1
 1829 402 1842 355 1842 249 c 0
 1842 122 1732 20 1576 20 c 0
 1495 20 1423 50 1381 110 c 2
 1366 132 l 1
 1349 110 l 1
 1304 50 1245 20 1174 20 c 0
 1124 20 1085 26 1058 38 c 2
 1030 51 l 1
 1030 10 l 2
 1030 -259 709 -352 400 -352 c 0
 197 -352 64 -259 64 -63 c 0
 64 30 104 145 183 282 c 1
 246 254 l 1
 182 130 150 31 150 -42 c 0
 150 -145 168 -166 233 -210 c 0
 267 -233 315 -244 376 -244 c 0
 668 -243 851 -188 924 -79 c 0
 941 -53 949 -24 949 8 c 0
 949 83 915 176 846 285 c 1
 918 339 l 1
 957 277 l 2
 988 229 1019 193 1050 168 c 0
 1081 143 1120 130 1169 130 c 0
 1218 130 1257 148 1288 182 c 0
 1319 216 1334 248 1334 278 c 2
 1334 372 l 1
 1415 372 l 1
 1415 272 l 1
 1417 181 1475 130 1576 130 c 0
EndSplineSet
EndChar

StartChar: Sf
Encoding: 65554 -1 106
Width: 2025
VWidth: 1524
GlyphClass: 2
Flags: HMW
LayerCount: 2
Back
Fore
SplineSet
400 -352 m 0
 197.003315624 -352 64 -259.262046978 64 -63 c 128
 64 30 104 145 183 282 c 1
 246 254 l 1
 182 130 150 31 150 -42 c 0
 150 -144.169278893 168.058106273 -166.068718949 233 -210 c 128
 267 -233 315 -244 376 -244 c 0
 668 -243 851 -188 924 -79 c 0
 941 -53 949 -24 949 8 c 0
 949 83 915 176 846 285 c 1
 918 339 l 1
 957 277 l 2
 988 229 1019 193 1050 168 c 128
 1081 143 1120 130 1169 130 c 128
 1218 130 1257 148 1288 182 c 128
 1319 216 1334 248 1334 278 c 2
 1334 372 l 1
 1415 372 l 1
 1415 272 l 1
 1416 177 1474 130 1588 130 c 0
 1622 130 1654 148 1685 184 c 128
 1716 220 1731 252 1731 282 c 2
 1731 372 l 1
 1811 372 l 1
 1811 275 l 2
 1811 206 1844 160 1909 137 c 0
 1928 130 1946 128 1965 130 c 1
 2026 130 l 1
 2026 20 l 1
 1964 20 l 2
 1883.90270774 20 1810.78956502 56.6840583044 1777 113 c 1
 1761 137 l 1
 1744 114 l 2
 1698 51 1637 20 1560 20 c 128
 1483 20 1423 50 1381 110 c 1
 1365 132 l 1
 1349 110 l 1
 1304 50 1246 20 1174 20 c 0
 1124 20 1085 26 1058 38 c 2
 1030 51 l 1
 1030 10 l 2
 1030 -258.872031981 709.214340497 -352 400 -352 c 0
EndSplineSet
EndChar

StartChar: Si
Encoding: 65555 -1 107
Width: 1486
VWidth: 1524
GlyphClass: 2
Flags: HMW
LayerCount: 2
Back
Fore
SplineSet
1106 130 m 0
 1188 130 1285 181 1287 258 c 0
 1287 319 1265 418 1222 557 c 1
 1308 565 l 1
 1351 434 1372 336 1372 270 c 0
 1372 129 1281 20 1113 20 c 6
 1111 20 l 2
 1035 20 951 50 910 109 c 1
 895 132 l 1
 878 110 l 1
 833 50 771 20 692 20 c 0
 613 20 554 48 515 105 c 2
 499 129 l 1
 483 105 l 1
 450 58 371 20 289 20 c 2
 0 20 l 2
 -11 20 -23 22 -35 25 c 1
 -35 130 l 1
 289 130 l 2
 338 130 380 147 415 181 c 0
 450 215 468 246 469 274 c 1
 469 372 l 1
 550 372 l 1
 550 268 l 2
 550 179 613 130 703 130 c 0
 749 130 787 147 818 182 c 0
 849 217 864 249 865 278 c 1
 865 372 l 1
 944 372 l 1
 944 272 l 2
 944 180 1015 130 1106 130 c 0
EndSplineSet
EndChar

StartChar: Sm
Encoding: 65556 -1 108
Width: 1574
VWidth: 1524
GlyphClass: 2
Flags: HMW
LayerCount: 2
Back
Fore
SplineSet
1339 275 m 1
 1340.84682843 186.352235234 1407.33300792 130 1493 130 c 2
 1555 130 l 1
 1555 20 l 1
 1493 20 l 2
 1419.16470598 20 1339.53253995 57.1124334122 1306 113 c 1
 1290 137 l 1
 1273 114 l 2
 1227 51 1165 20 1088 20 c 128
 1011 20 952 50 910 110 c 2
 895 132 l 1
 878 110 l 1
 833 50 770 20 692 20 c 128
 614 20 555 48 515 105 c 1
 499 129 l 1
 483 105 l 1
 450.062699009 57.6526298255 371.393728288 20 289 20 c 2
 0 20 l 2
 -11 20 -23 22 -35 25 c 1
 -35 130 l 1
 289 130 l 2
 338 130 380 147 415 181 c 128
 450 215 468 246 469 274 c 1
 469 372 l 1
 550 372 l 1
 550 268 l 2
 550 178.684968567 613.046613835 130 703 130 c 128
 749 130 787 148 818 182 c 128
 849 216 865 248 865 278 c 2
 865 372 l 1
 944 372 l 1
 944 272 l 2
 944 180.964421942 1014.31815801 130 1103 130 c 128
 1146 130 1184 147 1214 182 c 128
 1244 217 1259 251 1259 282 c 2
 1259 372 l 1
 1339 372 l 1
 1339 275 l 1
EndSplineSet
EndChar

StartChar: Zs
Encoding: 65557 -1 109
Width: 2039
VWidth: 1524
GlyphClass: 2
Flags: HMW
LayerCount: 2
Back
Fore
SplineSet
1892 352 m 0
 1892 435 1804 502 1741 502 c 0
 1644 502 1530 429 1399 283 c 0
 1364 243 1331 203 1298 162 c 2
 1272 130 l 1
 1438 130 l 2
 1581 130 1692 151 1772 194 c 0
 1852 237 1892 289 1892 352 c 0
400 -352 m 0
 197 -352 64 -259 64 -63 c 0
 64 30 104 145 183 282 c 1
 246 254 l 1
 182 130 150 31 150 -42 c 0
 150 -144 168 -166 233 -210 c 0
 267 -233 315 -244 376 -244 c 0
 668 -243 851 -188 924 -79 c 0
 941 -53 949 -24 949 8 c 0
 949 83 915 176 846 285 c 1
 918 339 l 1
 957 277 l 1
 1013 183 1077 135 1150 133 c 1
 1161 133 l 1
 1310 332 1436 467 1537 538 c 0
 1600 581 1672 603 1739 603 c 0
 1868 603 1979 524 1979 367 c 0
 1979 117 1703 20 1438 20 c 2
 1184 20 l 2
 1127 20 1085 26 1058 38 c 2
 1030 51 l 1
 1030 10 l 2
 1030 -259 709 -352 400 -352 c 0
EndSplineSet
EndChar

StartChar: Zf
Encoding: 65558 -1 110
Width: 2122
VWidth: 1524
GlyphClass: 2
Flags: HMW
LayerCount: 2
Back
Fore
SplineSet
183 282 m 1
 246 254 l 1
 182 130 150 31 150 -42 c 0
 150 -185 230 -244 376 -244 c 0
 668 -243 851 -188 924 -79 c 0
 941 -53 949 -24 949 8 c 0
 949 83 915 176 846 285 c 1
 918 339 l 1
 957 277 l 1
 1013 183 1078 135 1152 133 c 1
 1163 133 l 1
 1311 330 1438 464 1543 535 c 0
 1619 586 1679 605 1740 605 c 0
 1884 605 1976 486 1976 372 c 0
 1976 315 1952 233 1905 177 c 2
 1885 153 l 1
 1914 145 l 2
 1946 136 2016 131 2123 130 c 1
 2123 20 l 1
 2064 20 2023 21 2000 24 c 2
 1933 32 l 2
 1884 38 1828 54 1766 81 c 1
 1671 40 1563 20 1440 20 c 2
 1185 20 l 2
 1128 20 1085 26 1058 38 c 2
 1030 51 l 1
 1030 10 l 2
 1030 -259 709 -352 400 -352 c 0
 197 -352 64 -259 64 -63 c 0
 64 30 104 145 183 282 c 1
1893 355 m 0
 1893 437 1805 502 1743 502 c 0
 1673 502 1601 470 1528 407 c 0
 1455 344 1379 262 1299 162 c 2
 1273 130 l 1
 1440 130 l 2
 1582 130 1693 151 1773 194 c 0
 1853 237 1893 291 1893 355 c 0
EndSplineSet
EndChar

StartChar: Zi
Encoding: 65559 -1 111
Width: 1434
VWidth: 1524
GlyphClass: 2
Flags: HMW
LayerCount: 2
Back
Fore
SplineSet
619 126 m 1
 783 126 l 2
 1000 126 1141 171 1207 262 c 0
 1227 289 1237 317 1237 348 c 0
 1237 419 1162 496 1086 496 c 2
 1084 496 l 2
 1014 496 942 464 868 400 c 0
 794 336 719 256 644 158 c 1
 619 126 l 1
371 274 m 1
 372 197 414 128 497 128 c 2
 507 128 l 1
 624 285 732 404 830 486 c 0
 928 568 1010 601 1075 601 c 0
 1238 601 1320 487 1320 343 c 0
 1320 103 1031 14 783 14 c 2
 523 14 l 2
 447 14 371 54 337 105 c 2
 320 130 l 1
 303 105 l 2
 273 60 188 20 110 20 c 2
 0 20 l 2
 -11 20 -23 22 -35 25 c 1
 -35 130 l 1
 110 130 l 2
 189 130 290 198 290 270 c 2
 290 372 l 1
 371 372 l 1
 371 274 l 1
EndSplineSet
EndChar

StartChar: Zm
Encoding: 65560 -1 112
Width: 1486
VWidth: 1524
GlyphClass: 2
Flags: HMW
LayerCount: 2
Back
Fore
SplineSet
1468 20 m 1
 1267 22 1211 29 1105 77 c 1
 1007 35 899 14 780 14 c 2
 519 14 l 2
 443 14 368 54 332 106 c 2
 316 129 l 1
 299 105 l 1
 269 59 184 20 107 20 c 2
 0 20 l 2
 -11 20 -23 22 -35 25 c 1
 -35 130 l 1
 107 130 l 2
 153 130 194 147 231 180 c 0
 268 213 286 245 286 274 c 2
 286 372 l 1
 367 372 l 1
 367 268 l 1
 368 201 396 157 451 136 c 0
 465 131 479 128 493 128 c 2
 503 128 l 1
 648 322 775 457 883 532 c 0
 957 583 1025 601 1087 601 c 0
 1182 601 1317 523 1317 357 c 0
 1317 300 1292 229 1245 173 c 2
 1224 148 l 1
 1255 141 l 2
 1282 134 1353 131 1468 130 c 1
 1468 20 l 1
1233 340 m 0
 1233 415 1174 497 1072 497 c 0
 959 497 815 384 640 158 c 1
 615 126 l 1
 780 126 l 2
 925 126 1036 147 1115 190 c 0
 1194 233 1233 283 1233 340 c 0
EndSplineSet
EndChar

StartChar: Ts
Encoding: 65561 -1 113
Width: 1116
VWidth: 1524
GlyphClass: 2
Flags: HMW
LayerCount: 2
Back
Fore
SplineSet
968 340 m 0
 968 416 903 498 802 498 c 0
 770 498 731 488 684 468 c 0
 637 448 586 415 529 372 c 0
 472 329 401 258 316 161 c 1
 288 130 l 1
 359 127 434 126 509 126 c 0
 654 126 768 147 848 190 c 0
 928 233 968 283 968 340 c 0
93 159 m 1
 118 150 146 144 176 141 c 1
 212 184 l 1
 212 1121 l 1
 293 1121 l 1
 293 274 l 1
 328 311 l 1
 509 509 672 608 810 608 c 0
 948 608 1053 509 1053 362 c 0
 1053 98 760 14 480 14 c 0
 292 14 153 28 64 56 c 1
 93 159 l 1
EndSplineSet
EndChar

StartChar: Tf
Encoding: 65562 -1 114
Width: 1205
VWidth: 1524
GlyphClass: 2
Flags: HMW
LayerCount: 2
Back
Fore
SplineSet
971 347 m 0
 969 431 881 497 814 497 c 0
 733 497 652 466 570 402 c 0
 488 338 403 258 318 161 c 1
 290 130 l 1
 332 128 l 2
 362 127 393 126 424 126 c 2
 510 126 l 2
 655 126 767 147 848 190 c 0
 929 233 970 285 971 347 c 0
1206 20 m 1
 1013 20 933 29 837 77 c 1
 739 35 626 14 497 14 c 0
 299 14 155 28 64 56 c 1
 93 160 l 1
 126 151 155 144 179 140 c 1
 214 183 l 1
 214 1121 l 1
 295 1121 l 1
 295 274 l 1
 330 311 l 1
 511 509 675 608 820 608 c 0
 939 608 1057 495 1057 363 c 0
 1057 302 1028 227 977 171 c 2
 954 146 l 1
 988 138 l 2
 1013 133 1046 130 1085 130 c 2
 1206 130 l 1
 1206 20 l 1
EndSplineSet
EndChar

StartChar: Ti
Encoding: 65563 -1 115
Width: 1145
VWidth: 1524
GlyphClass: 2
Flags: HMW
LayerCount: 2
Back
Fore
SplineSet
949 340 m 0
 949 415 887 499 786 499 c 0
 755 499 714 488 664 466 c 0
 556 418 434 317 297 163 c 1
 268 130 l 1
 489 130 l 2
 689 130 949 180 949 340 c 0
-35 130 m 1
 148 130 l 1
 193 183 l 1
 193 1121 l 1
 273 1121 l 1
 273 274 l 1
 308 311 l 1
 493 509 647 601 790 601 c 0
 919 601 1030 492 1030 350 c 0
 1030 126 756 20 489 20 c 2
 0 20 l 2
 -11 20 -23 22 -35 25 c 1
 -35 130 l 1
EndSplineSet
EndChar

StartChar: Tm
Encoding: 65564 -1 116
Width: 1201
VWidth: 1524
GlyphClass: 2
Flags: HMW
LayerCount: 2
Back
Fore
SplineSet
1184 20 m 1
 980 20 924 29 812 77 c 1
 723 39 616 20 491 20 c 2
 0 20 l 2
 -11 20 -23 22 -35 25 c 1
 -35 130 l 1
 149 130 l 1
 194 183 l 1
 194 1121 l 1
 275 1121 l 1
 275 274 l 1
 310 311 l 1
 397 405 469 470 524 505 c 0
 631 574 719 602 790 602 c 0
 920 602 1038 498 1038 350 c 0
 1038 293 1000 218 957 171 c 2
 934 146 l 1
 968 138 l 2
 993 133 1025 130 1064 130 c 2
 1184 130 l 1
 1184 20 l 1
950 340 m 0
 950 422 881 497 782 497 c 0
 749 497 710 487 665 466 c 0
 559 419 437 318 299 163 c 1
 270 130 l 1
 491 130 l 2
 636 130 750 151 830 192 c 0
 910 233 950 282 950 340 c 0
EndSplineSet
EndChar

StartChar: Is
Encoding: 65565 -1 117
Width: 857
VWidth: 1524
GlyphClass: 2
Flags: HMW
LayerCount: 2
Back
Fore
SplineSet
149 -38 m 0
 149 -212 385 -274 596 -274 c 0
 630 -274 691 -273 778 -270 c 1
 793 -351 l 1
 720 -374 658 -385 608 -385 c 0
 471 -385 367 -368 298 -334 c 0
 163 -268 64 -198 64 -36 c 0
 64 119 144 256 303 375 c 1
 325 392 l 1
 302 407 l 1
 216 466 172 551 172 660 c 4
 172 780 282 889 397 889 c 2
 399 889 l 2
 472 889 548 874 625 845 c 1
 598 766 l 1
 558 777 492 783 408 783 c 0
 346 783 254 722 254 658 c 0
 254 573 314 505 435 455 c 1
 443 451 l 1
 517 488 615 523 738 554 c 1
 758 456 l 1
 352 345 149 180 149 -38 c 0
EndSplineSet
EndChar

StartChar: If
Encoding: 65566 -1 118
Width: 885
VWidth: 1524
GlyphClass: 2
Flags: HMW
LayerCount: 2
Back
Fore
SplineSet
557 687 m 128
 645.351935907 687 730 646.468081589 730 562 c 0
 730 503 687 443 602 384 c 1
 661.718769172 216.787446318 701.980632481 138.239673172 886 130 c 1
 886 20 l 1
 793 22 727 37 686 65 c 0
 623 108 571 197 530 334 c 2
 524 354 l 1
 504 347 l 1
 359.329877921 293.358269342 149 152.715289198 149 -33 c 0
 149 -87 173 -133 220 -172 c 0
 289 -228 403 -256 562 -257 c 0
 609 -257 677 -256 767 -253 c 1
 775 -346 l 1
 712 -361 649 -368 584 -368 c 2
 577 -368 l 2
 377 -368 236 -326 153 -243 c 0
 94 -184 65 -114 64 -33 c 0
 64 109 139 235 289 346 c 0
 343 387 406 422 477 451 c 2
 497 459 l 1
 487 478 l 1
 464 525 422 551 363 556 c 1
 359 638 l 1
 442 671 508 687 557 687 c 128
EndSplineSet
EndChar

StartChar: Ii
Encoding: 65567 -1 119
Width: 898
VWidth: 1524
GlyphClass: 2
Flags: HMW
LayerCount: 2
Back
Fore
SplineSet
436 578 m 128
 354.15627371 578 234 534.633004816 234 461 c 0
 234 415 251 368 285 320 c 128
 317.638618835 273.92194988 383.094618322 223.25868048 468 199 c 1
 777 300 l 1
 802 195 l 1
 745 174 689 154 633 135 c 0
 415 58 227 20 70 20 c 2
 0 20 l 2
 -11 20 -23 22 -35 25 c 1
 -35 130 l 1
 70 130 l 2
 146 130 213 136 271 147 c 1
 312 156 l 1
 280 182 l 1
 194 254 151 347 151 461 c 0
 151 514 178 565 232 614 c 0
 287 663 352 688 428 688 c 128
 504 688 585 676 672 653 c 1
 649 546 l 1
 560 567 489 578 436 578 c 128
EndSplineSet
EndChar

StartChar: Im
Encoding: 65568 -1 120
Width: 698
VWidth: 1524
GlyphClass: 2
Flags: HMW
LayerCount: 2
Back
Fore
SplineSet
433 227 m 1
 499.210902399 149.753947201 552.265654152 132.298827604 681 130 c 1
 681 20 l 1
 611 21 560 28 529 39 c 0
 466 62 419 96 386 141 c 2
 373 159 l 1
 356 144 l 1
 288 79 213 41 131 29 c 1
 130 29 l 1
 103 23 78 20 55 20 c 2
 0 20 l 2
 -11 20 -23 22 -35 25 c 1
 -35 130 l 1
 55 130 l 2
 160 130 250 167 325 242 c 1
 279.095223112 322.333359554 224.161208785 373.262816743 149 381 c 1
 146 459 l 1
 248 496 322 515 370 515 c 128
 456.505271744 515 536 474.568134721 536 392 c 128
 536 354 522 321 493 290 c 128
 464 259 444 238 433 227 c 1
EndSplineSet
EndChar

StartChar: Fs
Encoding: 65569 -1 121
Width: 1543
VWidth: 1524
GlyphClass: 2
Flags: HMW
LayerCount: 2
Back
Fore
SplineSet
145 278 m 128
 145 133.295715728 401.287372701 100 569 100 c 0
 929 100 1182 128 1329 185 c 1
 1330 186 l 1
 1331 186 l 1
 1364 203 1385 247 1395 318 c 1
 1399 351 l 1
 1368 340 l 2
 1339 329 1303 324 1260 324 c 0
 1102 324 1023 379 1023 489 c 0
 1023 557 1038 618 1067 671 c 0
 1111 753 1156 794 1203 794 c 0
 1266 794 1325 765 1378 708 c 0
 1445 639 1479 554 1479 454 c 0
 1479 263 1454 148 1405 109 c 0
 1337 55 1161 18 877 -1 c 0
 805 -6 752 -8 717 -8 c 2
 572 -8 l 2
 507 -8 432 0 346 16 c 128
 194.189652455 44.2437855897 64 122.41188993 64 292 c 128
 64 369 85 465 128 582 c 1
 210 564 l 1
 202 539 190 500 172 447 c 128
 154 394 145 337 145 278 c 128
1104 489 m 0
 1104 439.155235264 1185.6576106 434 1260 434 c 2
 1295 434 l 2
 1314 434 1349 444 1399 464 c 1
 1379 571 1333 641 1261 672 c 0
 1242 681 1224 686 1205 686 c 128
 1186 686 1170 677 1157 660 c 0
 1124 617 1106 560 1104 489 c 0
EndSplineSet
EndChar

StartChar: Ff
Encoding: 65570 -1 122
Width: 1566
VWidth: 1524
GlyphClass: 2
Flags: HMW
LayerCount: 2
Back
Fore
SplineSet
1288 525 m 0
 1219.4120873 523.14627263 1121 442.807681398 1121 374 c 128
 1121 341 1129 313 1145 292 c 128
 1161 271 1189 246 1228 218 c 1
 1239 225 l 1
 1333 282 1380 336 1380 388 c 0
 1380 444.575874076 1340.13421825 522.827740906 1288 525 c 0
580 -9 m 2
 339.576291637 -9 64 57.7153608351 64 272 c 128
 64 362 85 465 128 582 c 1
 210 564 l 1
 202 539 190 500 172 446 c 128
 154 392 145 339 145 286 c 0
 145 162 303 100 620 100 c 0
 771 100 928 121 1091 163 c 1
 1123 171 l 1
 1101 195 l 2
 1060 240 1040 299 1040 374 c 128
 1040 449 1086 521 1179 590 c 0
 1218 619 1257 633 1294 633 c 128
 1331 633 1368 608 1405 558 c 128
 1442 508 1461 450 1461 386 c 128
 1461 322 1427 257 1358 192 c 1
 1331 166 l 1
 1367 158 l 1
 1436 141 1502 132 1567 130 c 1
 1567 20 l 1
 1443 23 1330 50 1227 101 c 1
 1062 28 848 -9 586 -9 c 2
 580 -9 l 2
EndSplineSet
EndChar

StartChar: Fi
Encoding: 65571 -1 123
Width: 698
VWidth: 1524
GlyphClass: 2
Flags: HMW
LayerCount: 2
Back
Fore
SplineSet
208 487 m 0
 208 431.175623375 290.614423372 432 358 432 c 128
 405 432 454 442 505 463 c 1
 485 570 439 639 366 670 c 0
 346 679 327 684 310 684 c 128
 293 684 280 678 269 665 c 0
 228 616 208 557 208 487 c 0
128 487 m 0
 128 609.871784536 202.327488689 792 320 792 c 128
 374 792 432 760 493 696 c 128
 554 632 585 540 585 421 c 0
 585 250 561 145 514 108 c 0
 438 49 284 20 51 20 c 2
 0 20 l 2
 -11 20 -23 22 -35 25 c 1
 -35 130 l 1
 51 130 l 2
 190 130 290 138 349 155 c 128
 438.615844467 180.821514507 452.095603598 181.167306296 480 230 c 128
 488 244 494 273 501 317 c 2
 506 350 l 1
 474 339 l 2
 443 328 407 322 366 322 c 0
 207 322 128 377 128 487 c 0
EndSplineSet
EndChar

StartChar: Fm
Encoding: 65572 -1 124
Width: 698
VWidth: 1524
GlyphClass: 2
Flags: HMW
LayerCount: 2
Back
Fore
SplineSet
386 634 m 128
 487.734876713 634 565 494.538627924 565 385 c 128
 565 319 532 254 467 190 c 1
 441 165 l 1
 476 157 l 2
 542 141 610 132 681 130 c 1
 681 20 l 1
 547.406748276 22.1038307358 438.238004566 51.4497757486 338 96 c 1
 269 65 214 45 174 35 c 128
 134 25 89 20 39 20 c 2
 0 20 l 2
 -11 20 -23 22 -35 25 c 1
 -35 130 l 1
 39 130 l 2
 96 130 151 138 206 154 c 2
 237 163 l 1
 214 187 l 2
 167 236 144 293 144 358 c 128
 144 423 173 484 232 544 c 128
 291 604 342 634 386 634 c 128
487 389 m 0
 487 446.674053135 440.680275553 524 382 524 c 128
 352 524 319 507 282 474 c 128
 245 441 226 406 226 372 c 128
 226 338 235 310 254 287 c 128
 275.021411442 261.553028254 311.863648587 237.10908113 347 209 c 1
 358 216 l 1
 444 268 487 326 487 389 c 0
EndSplineSet
EndChar

StartChar: Gs
Encoding: 65573 -1 125
Width: 1133
VWidth: 1524
GlyphClass: 2
Flags: HMW
LayerCount: 2
Back
Fore
SplineSet
400 -352 m 0
 197.003315624 -352 64 -259.262046978 64 -63 c 128
 64 30 104 145 183 282 c 1
 246 254 l 1
 182 130 150 31 150 -42 c 0
 150 -144.169278893 168.058106273 -166.068718949 233 -210 c 128
 267 -233 315 -244 376 -244 c 0
 687 -242 882 -187 959 -79 c 0
 977 -52 987 -23 988 10 c 1
 988 146 l 1
 962 138 l 2
 921 125 873 118 820 118 c 0
 672 118 598 171 598 278 c 0
 598 389.21062539 671.674426402 588 774 588 c 2
 776 588 l 2
 987.221740508 588 1069 342.890192525 1069 109 c 2
 1069 10 l 2
 1069 -259.530946388 711.851016421 -352 400 -352 c 0
782 478 m 0
 714.361454228 478 679 357.359747101 679 286 c 0
 679 247 731 228 835 228 c 0
 881 228 927 238 974 257 c 1
 952 331 926 386 895 423 c 128
 864 460 827 478 782 478 c 0
EndSplineSet
EndChar

StartChar: Gf
Encoding: 65574 -1 126
Width: 1224
VWidth: 1524
GlyphClass: 2
Flags: HMW
LayerCount: 2
Back
Fore
SplineSet
821 433 m 0
 756 433 719 304 719 237 c 0
 719 212 735 191 767 176 c 0
 799 161 867 148 971 137 c 1
 995 135 l 1
 993 158 l 1
 981 341 924 433 821 433 c 0
639 235 m 0
 639 355 711 542 821 544 c 0
 981 544 1065 413 1073 152 c 1
 1074 134 l 1
 1122 131 1172 130 1225 130 c 1
 1225 20 l 1
 1192 20 1142 22 1075 25 c 1
 1074 5 l 1
 1065 -262 712 -352 400 -352 c 0
 197 -352 64 -259 64 -63 c 0
 64 30 104 145 183 282 c 1
 246 254 l 1
 182 130 150 31 150 -42 c 0
 150 -184 230 -244 376 -244 c 0
 611 -243 783 -210 892 -145 c 0
 960 -104 994 -51 994 12 c 2
 994 29 l 1
 810 38 639 74 639 235 c 0
EndSplineSet
EndChar

StartChar: Qs
Encoding: 65575 -1 127
Width: 1249
VWidth: 1524
GlyphClass: 2
Flags: HMW
LayerCount: 2
Back
Fore
SplineSet
119 58 m 1
 152 153 l 1
 229 124 334 110 467 110 c 0
 720 110 873 122 926 146 c 128
 979 170 1006 228 1006 319 c 2
 1006 1121 l 1
 1086 1121 l 1
 1086 319 l 2
 1086 178 1052 90 984 57 c 0
 930 29 794 10 577 -0 c 0
 538 -1 492 -2 439 -2 c 0
 314 -2 208 18 119 58 c 1
705 875 m 1
 705 813 l 1
 640 810 589 791 554 758 c 0
 529.116332845 733.116332845 524.715756983 701.642121508 554 687 c 128
 564 682 576 676 589 669 c 2
 627 650 l 2
 673 628 696 598 696 558 c 128
 696 518 659 483 584 453 c 0
 529 431 479 418 434 415 c 1
 434 476 l 1
 521 478 587 494 634 525 c 0
 646 532 652 542 652 554 c 128
 652 580.065764383 643.548522932 579.75621203 625 588 c 2
 588 606 l 2
 551 624 526 641 512 656 c 128
 498 671 491 688 491 708 c 0
 491 799.844720524 612.613072681 869.960713055 705 875 c 1
EndSplineSet
EndChar

StartChar: Qf
Encoding: 65576 -1 128
Width: 1316
VWidth: 1524
GlyphClass: 2
Flags: HMW
LayerCount: 2
Back
Fore
SplineSet
705 875 m 1
 705 813 l 1
 640 810 589 791 554 758 c 0
 529.116332845 733.116332845 524.715756983 701.642121508 554 687 c 128
 564 682 576 676 589 669 c 2
 627 650 l 2
 673 628 696 598 696 558 c 128
 696 518 659 483 584 453 c 0
 529 431 479 418 434 415 c 1
 434 476 l 1
 521 478 587 494 634 525 c 0
 646 532 652 542 652 554 c 128
 652 580.065764383 643.548522932 579.75621203 625 588 c 2
 588 606 l 2
 551 624 526 641 512 656 c 128
 498 671 491 688 491 708 c 0
 491 799.844720524 612.613072681 869.960713055 705 875 c 1
119 58 m 1
 152 153 l 1
 229 124 334 110 467 110 c 0
 711 110 859 122 912 146 c 128
 965 170 992 228 992 319 c 2
 992 1121 l 1
 1072 1121 l 1
 1072 372 l 2
 1072 285 1084 229 1108 202 c 128
 1154.88099132 149.25888476 1204.54790385 132.146638549 1299 130 c 1
 1299 20 l 1
 1178.08985964 21.8892209431 1111.07163523 47.8717740924 1058 112 c 1
 1041 132 l 1
 1026 110 l 2
 1001 72 962 47 909 35 c 0
 779 10 655 -2 537 -2 c 128
 419 -2 331 3 272 14 c 128
 213 25 162 39 119 58 c 1
EndSplineSet
EndChar

StartChar: Ks
Encoding: 65577 -1 129
Width: 1725
VWidth: 1524
GlyphClass: 2
Flags: HMW
LayerCount: 2
Back
Fore
SplineSet
1093 717 m 1
 1279 608 1442 474 1442 289 c 0
 1442 90 1228 -9 699 -9 c 0
 544 -9 369 14 271 64 c 0
 175 113 121 182 121 272 c 0
 121 362 148 465 191 582 c 1
 273 564 l 1
 252 500 208 375 208 278 c 0
 208 219 249 175 332 145 c 0
 417 114 576 93 708 93 c 0
 990 93 1360 101 1360 289 c 0
 1360 386 1284 481 1133 573 c 0
 1093 598 1050 622 1005 647 c 1
 1022 826 l 1
 1188 938 1351 1034 1510 1115 c 0
 1555 1138 1597 1156 1637 1170 c 1
 1666 1065 l 1
 1509 1004 1317 900 1092 751 c 2
 1065 733 l 1
 1093 717 l 1
EndSplineSet
EndChar

StartChar: Kf
Encoding: 65578 -1 130
Width: 1825
VWidth: 1524
GlyphClass: 2
Flags: HMW
LayerCount: 2
Back
Fore
SplineSet
628 -9 m 2
 396.506308811 -9 127 62.025490148 127 272 c 128
 127 362 148 465 191 582 c 1
 273 564 l 1
 265 539 252 500 234 447 c 128
 216 394 208 337 208 278 c 128
 208 219 249 175 331 145 c 128
 413 115 519 100 649 100 c 0
 886 100 1063 115 1182 144 c 128
 1301 173 1360 222 1360 289 c 0
 1360 386 1284 481 1133 573 c 0
 1093 598 1050 622 1005 647 c 1
 1022 826 l 1
 1188 938 1351 1034 1510 1115 c 0
 1555 1138 1597 1156 1637 1170 c 1
 1666 1065 l 1
 1507 1004 1316 899 1091 751 c 1
 1064 733 l 1
 1092 717 l 1
 1257 618 1378 531 1453 456 c 128
 1528 381 1579 321 1604 276 c 128
 1650.60404374 192.112721266 1708.109192 136.514617913 1808 130 c 1
 1808 21 l 1
 1691 28 1602 94 1539 219 c 0
 1527 243 1506 273 1476 308 c 2
 1442 349 l 1
 1441 295 l 2
 1439 172 1350 88 1173 41 c 0
 1065 12 969 -4 884 -6 c 128
 799 -8 728 -9 671 -9 c 2
 628 -9 l 2
EndSplineSet
EndChar

StartChar: Ki
Encoding: 65579 -1 131
Width: 796
VWidth: 1524
GlyphClass: 2
Flags: HMW
LayerCount: 2
Back
Fore
SplineSet
2 20 m 2
 -10 20 -22 22 -35 25 c 1
 -35 130 l 1
 55 130 l 2
 213 130 324 158 389 213 c 0
 414 234 427 263 427 298 c 0
 427 363 390 427 316 490 c 0
 266 533 185 585 73 647 c 1
 90 826 l 1
 258 939 420 1036 577 1115 c 0
 622 1138 664 1156 705 1170 c 1
 733 1065 l 1
 576 1004 384 900 159 751 c 2
 132 733 l 1
 160 717 l 2
 273 652 350 596 391 550 c 0
 470 463 509 381 509 304 c 0
 509 264 503 231 492 206 c 0
 460 135 387 83 274 49 c 0
 209 30 153 20 106 20 c 2
 2 20 l 2
EndSplineSet
EndChar

StartChar: Km
Encoding: 65580 -1 132
Width: 898
VWidth: 1524
GlyphClass: 2
Flags: HMW
LayerCount: 2
Back
Fore
SplineSet
508 298 m 2
 508 97.8190510567 268.435867135 20 55 20 c 2
 0 20 l 2
 -11 20 -23 22 -35 25 c 1
 -35 130 l 1
 55 130 l 2
 213 130 324 158 389 213 c 0
 414 234 427 263 427 298 c 0
 427 363 390 427 316 490 c 0
 266 533 185 585 73 647 c 1
 90 826 l 1
 258 939 420 1036 577 1115 c 0
 622 1138 664 1156 705 1170 c 1
 733 1065 l 1
 574 1004 383 899 158 751 c 1
 131 733 l 1
 159 717 l 1
 323 619 442 534 516 462 c 128
 590 390 641 329 668 280 c 128
 695 231 725 196 757 172 c 128
 789 148 830 134 880 131 c 1
 880 21 l 1
 760 28 669 92 608 215 c 0
 587.69896392 257.447620894 568.044049313 276.338330962 544 310 c 2
 508 360 l 1
 508 298 l 2
EndSplineSet
EndChar

StartChar: Ls
Encoding: 65581 -1 133
Width: 1236
VWidth: 1524
GlyphClass: 2
Flags: HMW
LayerCount: 2
Back
Fore
SplineSet
446 -352 m 0
 243.003315624 -352 110 -259.262046978 110 -63 c 128
 110 30 150 145 229 282 c 1
 292 254 l 1
 228 130 196 31 196 -42 c 0
 196 -144.169278893 214.058106273 -166.068718949 279 -210 c 128
 313 -233 361 -244 422 -244 c 0
 715 -243 898 -188 971 -79 c 0
 988 -53 996 -31 996 -13 c 2
 996 1121 l 1
 1076 1121 l 1
 1076 10 l 2
 1076 -258.872031981 755.214340497 -352 446 -352 c 0
EndSplineSet
EndChar

StartChar: Lf
Encoding: 65582 -1 134
Width: 1316
VWidth: 1524
GlyphClass: 2
Flags: HMW
LayerCount: 2
Back
Fore
SplineSet
446 -352 m 0
 243.003315624 -352 110 -259.262046978 110 -63 c 128
 110 30 150 145 229 282 c 1
 292 254 l 1
 228 130 196 31 196 -42 c 0
 196 -144.169278893 214.058106273 -166.068718949 279 -210 c 128
 313 -233 361 -244 422 -244 c 0
 715 -243 898 -188 971 -79 c 0
 988 -53 996 -31 996 -13 c 2
 996 1121 l 1
 1076 1121 l 1
 1076 282 l 2
 1076 185 1150 134 1299 130 c 1
 1299 20 l 1
 1220 22 1155 35 1105 60 c 2
 1076 74 l 1
 1076 10 l 2
 1076 -258.872031981 755.214340497 -352 446 -352 c 0
EndSplineSet
EndChar

StartChar: Li
Encoding: 65583 -1 135
Width: 507
VWidth: 1524
GlyphClass: 2
Flags: HMW
LayerCount: 2
Back
Fore
SplineSet
76 130 m 2
 211.358462875 130 260 191.637502214 260 319 c 2
 260 1121 l 1
 340 1121 l 1
 340 319 l 2
 340 197 318 117 274 78 c 128
 230 39 164 20 76 20 c 2
 0 20 l 2
 -11 20 -23 22 -35 25 c 1
 -35 130 l 1
 76 130 l 2
EndSplineSet
EndChar

StartChar: Lm
Encoding: 65584 -1 136
Width: 548
VWidth: 1524
GlyphClass: 2
Flags: HMW
LayerCount: 2
Back
Fore
SplineSet
293 354 m 1
 295.129808761 194.264342917 368.115160966 135.682029269 531 130 c 1
 531 20 l 1
 408 23 324 51 278 104 c 2
 261 124 l 1
 247 102 l 1
 224 69 199 49 174 42 c 0
 123 27 74 20 27 20 c 2
 0 20 l 2
 -11 20 -23 22 -35 25 c 1
 -35 130 l 1
 27 130 l 2
 162.967965276 130 212 191.075748165 212 319 c 2
 212 1121 l 1
 293 1121 l 1
 293 354 l 1
EndSplineSet
EndChar

StartChar: Ms
Encoding: 65585 -1 137
Width: 1004
VWidth: 1524
GlyphClass: 2
Flags: HMW
LayerCount: 2
Back
Fore
SplineSet
415 600 m 0
 415 714.094854968 481.422901686 845 587 845 c 2
 589 845 l 1
 638 844 686 827 734 792 c 0
 801 744 846 677 870 591 c 0
 877 566 880 540 880 513 c 128
 880 486 875 458 865 431 c 1
 832 328 l 1
 728 367 613 386 488 386 c 128
 363 386 275 375 224 352 c 0
 207 345 198 334 198 320 c 0
 198 241 225 -9 280 -430 c 1
 199 -444 l 1
 145 -15 118 239 118 318 c 128
 118 397 178 447 298 470 c 0
 335 477 371 483 408 488 c 2
 431 491 l 1
 424 514 l 2
 418 533 415 562 415 600 c 0
588 734 m 0
 527.102792246 734 496 665.981256637 496 584 c 128
 496 558 505 528 522 496 c 1
 534 496 l 1
 608 495 692 482 785 459 c 1
 795 479 800 500 800 522 c 0
 800 567 779 614 738 662 c 128
 697 710 647 734 588 734 c 0
EndSplineSet
EndChar

StartChar: Mf
Encoding: 65586 -1 138
Width: 1145
VWidth: 1524
GlyphClass: 2
Flags: HMW
LayerCount: 2
Back
Fore
SplineSet
727 376 m 1
 708 347 l 2
 665 280 643 207 643 130 c 0
 644 105 654 77 674 48 c 128
 694 19 721 5 752 5 c 0
 820 5 868 41 896 112 c 1
 870.134189862 144.332262672 842.338795112 174.102008147 822 208 c 2
 777 283 l 2
 765 302 754 323 743 345 c 2
 727 376 l 1
627 383 m 1
 572 420 498 438 404 438 c 128
 310 438 246 414 213 367 c 0
 203 352 198 336 198 320 c 0
 198 241 225 -9 280 -430 c 1
 199 -444 l 1
 145 -15 118 227 118 282 c 128
 118 386.439771721 134.889266244 430.528107964 188 477 c 0
 242 524 310 548 392 548 c 128
 474 548 544 536 602 513 c 2
 656 492 l 1
 596 593 l 1
 667 645 l 1
 881 284 l 1
 946.244472735 171.976471341 1007.47512221 137.030875164 1127 130 c 1
 1127 20 l 1
 1066 21 1019 31 984 48 c 2
 965 57 l 1
 957 38 l 1
 916 -56 847 -103 748 -103 c 0
 724 -103 701 -96 679 -81 c 0
 621.032051362 -43.1948161053 564.923554539 35.8346910693 561 130 c 0
 561 211 583 295 627 383 c 1
EndSplineSet
EndChar

StartChar: Mi
Encoding: 65587 -1 139
Width: 850
VWidth: 1524
GlyphClass: 2
Flags: HMW
LayerCount: 2
Back
Fore
SplineSet
598 -16 m 0
 477 -16 370 35 276 136 c 1
 235 98 190 69 140 50 c 128
 90 31 52 21 26 21 c 128
 0 21 -20 22 -35 25 c 1
 -35 130 l 1
 0 130 l 2
 105 130 190 172 254 256 c 128
 318 340 362 392 385 413 c 0
 434 458 480 480 522 480 c 128
 564 480 609 448 658 385 c 128
 707 322 732 259 732 197 c 0
 732 87 704 20 648 -5 c 0
 631 -12 614 -16 598 -16 c 0
334 209 m 1
 404.072908305 138.927091695 484.538897153 95 587 95 c 2
 589 95 l 2
 630 95 650 128 650 195 c 0
 650 275.048344375 569.218321988 370 514 370 c 128
 481 370 439 338 388 274 c 0
 378 261 360 239 334 209 c 1
EndSplineSet
EndChar

StartChar: Mm
Encoding: 65588 -1 140
Width: 1004
VWidth: 1524
GlyphClass: 2
Flags: HMW
LayerCount: 2
Back
Fore
SplineSet
520 65 m 0
 587.192120108 65 608 136.665983098 608 214 c 128
 608 263 590 307 555 346 c 0
 545 355 529 360 508 360 c 0
 473 359 413 318 328 236 c 1
 316 225 l 1
 385 118 453 65 520 65 c 0
692 166 m 1
 683 128 l 1
 661.769824349 31.6476643529 625.058353471 -44 522 -44 c 0
 435 -44 351 17 269 138 c 1
 255 158 l 1
 238 141 l 2
 157 60 78 20 0 20 c 0
 -11 20 -23 22 -35 25 c 1
 -35 130 l 1
 0 130 l 2
 111.621979206 130 184.81200373 222.128841113 264 305 c 0
 369 416 451 472 512 472 c 2
 514 472 l 2
 547 472 586 444 632 389 c 1
 756 236 l 1
 809 169 887 134 988 130 c 1
 988 20 l 1
 844.016244846 25.4677375375 783.790660774 66.3359569463 718 137 c 1
 692 166 l 1
EndSplineSet
EndChar

StartChar: Ns
Encoding: 65589 -1 141
Width: 1177
VWidth: 1524
GlyphClass: 2
Flags: HMW
LayerCount: 2
Back
Fore
SplineSet
998 10 m 128
 998 109.966635112 916.627421242 322.150162948 879 400 c 1
 954 440 l 1
 1008 319 1047 200 1072 85 c 0
 1080 51 1084 19 1084 -12 c 128
 1084 -43 1075 -76 1058 -109 c 0
 1009 -210 908 -279 757 -317 c 0
 660 -340 570 -352 487 -352 c 128
 327.862774431 -352 221.737029357 -325.063072032 156 -236 c 128
 125 -194 110 -141 110 -76 c 0
 110 25 150 144 229 282 c 1
 292 254 l 1
 228 130 196 31 196 -42 c 0
 196 -131.332245473 213.987891194 -163.354829959 263 -199 c 0
 308 -229 361 -244 424 -244 c 0
 717 -243 900 -188 973 -79 c 0
 990 -53 998 -24 998 10 c 128
EndSplineSet
EndChar

StartChar: Nf
Encoding: 65590 -1 142
Width: 1268
VWidth: 1524
GlyphClass: 2
Flags: HMW
LayerCount: 2
Back
Fore
SplineSet
446 -352 m 0
 243.003315624 -352 110 -259.262046978 110 -63 c 128
 110 30 150 145 229 282 c 1
 292 254 l 1
 228 130 196 31 196 -42 c 0
 196 -144.169278893 214.058106273 -166.068718949 279 -210 c 128
 313 -233 361 -244 422 -244 c 0
 714 -243 897 -188 970 -79 c 0
 987 -53 995 -24 995 8 c 0
 995 83 961 176 892 285 c 1
 964 339 l 1
 1003 277 l 2
 1042 216 1078 176 1111 158 c 128
 1144 140 1190 131 1251 130 c 1
 1251 20 l 1
 1185 22 1137 34 1108 55 c 2
 1076 78 l 1
 1076 10 l 2
 1076 -258.872031981 755.214340497 -352 446 -352 c 0
EndSplineSet
EndChar

StartChar: Vs
Encoding: 65591 -1 143
Width: 840
VWidth: 1524
GlyphClass: 2
Flags: HMW
LayerCount: 2
Back
Fore
SplineSet
336 251 m 0
 336 216 366 198 425 198 c 0
 439 197 463 196 497 196 c 128
 531 196 576 208 633 232 c 1
 620 335 588 408 537 449 c 0
 519 464 499 471 477 471 c 0
 438 471 406 445 378 392 c 128
 350 339 336 292 336 251 c 0
631 115 m 1
 594 102 l 2
 562 91 531 85 502 85 c 0
 401 85 336 100 304 130 c 128
 272 160 256 204 256 264 c 128
 256 324 281 391 332 467 c 128
 383 543 430 581 473 581 c 0
 540 580 598 539 644 456 c 128
 690 373 713 289 713 202 c 128
 713 115 704 48 687 1 c 0
 657 -81 602 -155 522 -222 c 128
 442 -289 329 -350 182 -407 c 1
 152 -303 l 1
 421 -200 577 -74 620 77 c 2
 631 115 l 1
EndSplineSet
EndChar

StartChar: Vf
Encoding: 65592 -1 144
Width: 981
VWidth: 1524
GlyphClass: 2
Flags: HMW
LayerCount: 2
Back
Fore
SplineSet
643 137 m 1
 646 159 648 190 648 231 c 0
 648 272 636 322 611 382 c 0
 586 442 550 471 501 471 c 0
 467 471 436 444 408 392 c 0
 385 350 365 302 365 262 c 0
 365 231 377 205 409 188 c 0
 451 165 529 148 643 137 c 1
739 134 m 1
 790 131 835 130 897 130 c 2
 961 130 l 1
 961 20 l 1
 936 20 l 2
 833 20 769 23 721 29 c 1
 692 -64 625 -146 544 -215 c 0
 463 -284 347 -348 196 -407 c 1
 165 -303 l 1
 404 -210 553 -105 610 12 c 1
 622 36 l 1
 413 65 280 88 280 257 c 0
 280 322 310 386 359 464 c 0
 408 542 456 581 501 581 c 0
 546 581 594 564 636 517 c 0
 686 461 739 323 739 192 c 2
 739 134 l 1
EndSplineSet
EndChar

StartChar: Hs
Encoding: 65593 -1 145
Width: 855
VWidth: 1524
GlyphClass: 2
Flags: HMW
LayerCount: 2
Back
Fore
SplineSet
194 236 m 0
 194 147.996104046 289.914112028 112 408 112 c 128
 452 112 507 126 574 155 c 128
 641 184 674 221 674 268 c 0
 674 359 570 456 361 560 c 1
 250 427 194 319 194 236 c 0
368 1 m 0
 230.233971834 1 114 97.7401565223 114 236 c 0
 114 327 163 441 260 580 c 0
 295 629 323 663 345 680 c 1
 396 661 444 637 490 607 c 0
 667 494 755 379 755 264 c 0
 755 224 731 178 684 126 c 128
 628.049134296 64.0969145404 506.379422133 1 368 1 c 0
EndSplineSet
EndChar

StartChar: Hf
Encoding: 65594 -1 146
Width: 912
VWidth: 1524
GlyphClass: 2
Flags: HMW
LayerCount: 2
Back
Fore
SplineSet
528 584 m 1
 507 576 l 1
 312 504 214 414 214 305 c 0
 214 259 296 233 459 226 c 0
 516 223 559 220 588 219 c 1
 564 110 l 1
 427 119 338 129 297 141 c 0
 188 174 134 225 134 295 c 0
 134 427 204 535 345 618 c 0
 389 645 442 669 505 690 c 1
 479 803 l 1
 557 825 l 1
 682 278 l 1
 704.914081042 168.25361185 771.909764956 130 893 130 c 1
 893 20 l 1
 830 21 783 28 752 41 c 0
 693 66 649 117 621 196 c 1
 528 584 l 1
EndSplineSet
EndChar

StartChar: Hi
Encoding: 65595 -1 147
Width: 981
VWidth: 1524
GlyphClass: 2
Flags: HMW
LayerCount: 2
Back
Fore
SplineSet
661 -24 m 128
 578.689697455 -24 400.333631272 30.6664804552 323 79 c 1
 219.058373276 44.3527910919 114.101130701 20 0 20 c 0
 -11 20 -23 22 -35 25 c 1
 -35 130 l 1
 0 130 l 2
 62 130 123 135 182 146 c 2
 217 153 l 1
 193 179 l 2
 146 231 122 294 122 367 c 0
 122 488 177 589 286 668 c 1
 313 687 l 1
 283 702 l 2
 267 710 243 723 210 740 c 1
 250 837 l 1
 331 794 403 750 468 707 c 1
 469 707 l 1
 594 633 692 545 763 442 c 128
 834 339 870 259 870 200 c 128
 870 84.2003501667 776.495935883 -24 661 -24 c 128
650 87 m 128
 731.521905382 87 790 123.370471253 790 198 c 128
 790 230 775 270 746 318 c 128
 717 366 671 419 610 476 c 2
 572 511 l 1
 576 459 l 2
 577 443 578 430 578 419 c 2
 578 393 l 2
 578 300 538 221 459 158 c 2
 429 134 l 1
 465 123 l 2
 542 99 603 87 650 87 c 128
319 187 m 1
 435.961727691 225.987242564 497 302.204611918 497 393 c 0
 497 536 470 608 415 608 c 0
 366.592645735 608 314.47948268 573.74213636 283 545 c 0
 229 494 202 432 202 360 c 128
 202 288 241 230 319 187 c 1
EndSplineSet
EndChar

StartChar: Hm
Encoding: 65596 -1 148
Width: 850
VWidth: 1524
GlyphClass: 2
Flags: HMW
LayerCount: 2
Back
Fore
SplineSet
797 20 m 2
 687.147254893 20 598 -43.0610308752 598 -173 c 128
 598 -210 603 -241 612 -266 c 1
 578 -378 l 1
 372 -295 243 -165 191 12 c 1
 186 28 l 1
 141 23 107 20 84 20 c 2
 0 20 l 2
 -11 20 -23 22 -35 25 c 1
 -35 130 l 1
 84 130 l 2
 105 130 126 131 147 132 c 2
 170 133 l 1
 166 156 l 2
 165 161 164 167 164 174 c 2
 164 199 l 2
 164 361 186 491 230 590 c 0
 249 633 269 664 290 684 c 128
 311 704 330 714 346 714 c 0
 383 714 425 694 471 654 c 128
 545.54835358 589.175344713 634 457.202954028 634 329 c 128
 634 274 603 220 540 167 c 128
 477 114 395 73 292 45 c 2
 270 39 l 1
 278 18 l 1
 316 -75 386 -154 489 -218 c 2
 523 -239 l 1
 520 -199 l 2
 519 -192 519 -183 519 -173 c 2
 519 -140 l 2
 519 -81 544 -22 596 39 c 128
 648 100 715 130 797 130 c 2
 832 130 l 1
 832 20 l 1
 797 20 l 2
555 324 m 0
 555 435.230442238 452.372994454 604 345 604 c 0
 326 604 312 594 301 574 c 0
 264 504 245 379 245 199 c 1
 244 179 l 2
 244 174 245 162 248 144 c 1
 269 147 l 1
 348 161 407 179 444 202 c 0
 517 247 554 287 555 324 c 0
EndSplineSet
EndChar

StartChar: Ys
Encoding: 65597 -1 149
Width: 1400
VWidth: 1524
GlyphClass: 2
Flags: HMW
LayerCount: 2
Back
Fore
SplineSet
492 -325 m 1
 237 -322 109 -231 109 -50 c 0
 109 53 149 173 229 312 c 1
 293 281 l 1
 286 267 277 252 268 237 c 0
 219 146 194 51 194 -47 c 0
 194 -159 285 -215 468 -215 c 0
 669 -215 839 -193 976 -149 c 0
 1061 -121 1103 -87 1103 -47 c 2
 1103 -44 l 2
 1103 -22 1092 -4 1069 10 c 128
 1046 24 999 40 927 59 c 128
 855 78 807 100 784 124 c 128
 761 148 750 188 750 246 c 128
 750 304 790 370 869 441 c 128
 948 512 1024 548 1097 548 c 128
 1170 548 1236 503 1297 412 c 1
 1224 353 l 1
 1187 406 1142 433 1090 433 c 128
 1038 433 982 412 922 369 c 128
 862 326 832 283 832 239 c 0
 832 220 843 205 864 194 c 128
 885 183 931 168 1002 148 c 0
 1129 113 1192 59 1192 -14 c 0
 1192 -25 1191 -35 1188 -46 c 0
 1144 -232 925 -325 530 -325 c 2
 492 -325 l 1
EndSplineSet
EndChar

StartChar: Yf
Encoding: 65598 -1 150
Width: 1308
VWidth: 1524
GlyphClass: 2
Flags: HMW
LayerCount: 2
Back
Fore
SplineSet
900 179 m 1
 1001.69630102 171.023819527 1176.08687539 131.834641387 1288 130 c 1
 1288 20 l 1
 1202.51970621 21.6128357319 1076.00348436 49.4993299305 1011 62 c 2
 914 80 l 1
 996 25 l 2
 1087 -36 1132 -94 1132 -151 c 0
 1132 -290 921 -360 498 -360 c 0
 316 -360 196 -307 138 -201 c 0
 119 -166 109 -128 109 -87 c 0
 109 23 149 146 229 282 c 1
 292 254 l 1
 261 195 237 142 220 96 c 128
 203 50 194 -7 194 -76 c 0
 194 -192 315 -250 558 -250 c 0
 611 -250 694 -245 808 -235 c 128
 922 -225 996 -211 1031 -193 c 0
 1047 -184 1055 -169 1055 -146 c 0
 1055 -95 982 -37 836 29 c 1
 900 179 l 1
EndSplineSet
EndChar

StartChar: LAs
Encoding: 65599 -1 151
Width: 1126
VWidth: 1524
GlyphClass: 2
Flags: HMW
LayerCount: 2
Back
Fore
SplineSet
415 4 m 1
 448 15 494 30 552 49 c 1
 551 82 l 1
 524.76109962 404.363633238 454.053071895 626.7903391 272 781 c 1
 325 880 l 1
 496 731 597 477 629 118 c 1
 632 75 l 1
 657 85 l 1
 734 118 786 145 813 168 c 0
 868 217 896 267 896 319 c 2
 896 1141 l 1
 976 1141 l 1
 976 319 l 2
 976 217 935 137 854 78 c 128
 773 19 668 -31 539 -70 c 1
 440 -101 l 1
 415 4 l 1
EndSplineSet
EndChar

StartChar: uniFEFB
Encoding: 65275 65275 152
Width: 1004
VWidth: 1524
GlyphClass: 3
LigCaretCntFixed: 1
Flags: HMW
AnchorPoint: "Anchor-3" 739 -75 baselig 0
AnchorPoint: "Anchor-2" 703 1274 baselig 0
AnchorPoint: "Anchor-3" 234 -169 baselig 1
AnchorPoint: "Anchor-2" 164 1204 baselig 1
LayerCount: 2
Back
Fore
SplineSet
287 4 m 1
 356 25 402 40 425 51 c 1
 424 82 l 1
 401.705433302 371.829367077 387.807113729 491.954027854 306 718 c 128
 268 823 215 917 147 1000 c 1
 209 1070 l 1
 374 871 472 554 502 119 c 1
 504 75 l 1
 529 85 l 2
 604 116 656 143 685 166 c 0
 741 215 769 266 769 319 c 2
 769 1141 l 1
 848 1141 l 1
 848 319 l 2
 848 192 774 91 625 14 c 0
 564 -16 493 -44 412 -70 c 2
 312 -102 l 1
 287 4 l 1
EndSplineSet
Ligature2: "'rlig' Required Ligatures in Arabic lookup 2 subtable" lam.init alef.fina8E
PairPos2: "'kern' Horizontal Kerning in Arabic lookup 0 subtable" gaf_ye.farsi.isol dx=50 dy=0 dh=50 dv=0 dx=0 dy=0 dh=0 dv=0
PairPos2: "'kern' Horizontal Kerning in Arabic lookup 0 subtable" kaf.farsi_ye.farsi.isol dx=50 dy=0 dh=50 dv=0 dx=0 dy=0 dh=0 dv=0
PairPos2: "'kern' Horizontal Kerning in Arabic lookup 0 subtable" uniFEDB dx=50 dy=0 dh=50 dv=0 dx=0 dy=0 dh=0 dv=0
PairPos2: "'kern' Horizontal Kerning in Arabic lookup 0 subtable" uniFE83 dx=62 dy=0 dh=62 dv=0 dx=0 dy=0 dh=0 dv=0
PairPos2: "'kern' Horizontal Kerning in Arabic lookup 0 subtable" uniFE81 dx=62 dy=0 dh=62 dv=0 dx=0 dy=0 dh=0 dv=0
PairPos2: "'kern' Horizontal Kerning in Arabic lookup 0 subtable" kaf.init dx=50 dy=0 dh=50 dv=0 dx=0 dy=0 dh=0 dv=0
PairPos2: "'kern' Horizontal Kerning in Arabic lookup 0 subtable" uniFB8E dx=50 dy=0 dh=50 dv=0 dx=0 dy=0 dh=0 dv=0
PairPos2: "'kern' Horizontal Kerning in Arabic lookup 0 subtable" uniFB50 dx=62 dy=0 dh=62 dv=0 dx=0 dy=0 dh=0 dv=0
PairPos2: "'kern' Horizontal Kerning in Arabic lookup 0 subtable" gaf.init dx=50 dy=0 dh=50 dv=0 dx=0 dy=0 dh=0 dv=0
PairPos2: "'kern' Horizontal Kerning in Arabic lookup 0 subtable" uniFB92 dx=50 dy=0 dh=50 dv=0 dx=0 dy=0 dh=0 dv=0
LCarets2: 1 496 
EndChar

StartChar: LAf
Encoding: 65600 -1 153
Width: 1229
VWidth: 1524
GlyphClass: 2
Flags: HMW
LayerCount: 2
Back
Fore
SplineSet
376 -79 m 1
 362 30 l 1
 586 68 l 1
 567 247 543 376 513 455 c 0
 455 610 376 728 276 811 c 1
 327 895 l 1
 485 758 586 570 630 333 c 0
 643 261 654 190 661 120 c 1
 664 94 l 1
 688 103 l 2
 825 155 893 227 893 319 c 2
 893 1121 l 1
 974 1121 l 1
 974 319 l 2
 974 247 993 198 1032 172 c 128
 1071 146 1130 131 1211 130 c 1
 1211 20 l 1
 1085.63757521 21.6495055893 1036.49460095 33.9247467178 975 76 c 0
 958 90 944 107 932 126 c 2
 918 150 l 1
 900 129 l 2
 821 38 698 -23 531 -52 c 2
 376 -79 l 1
EndSplineSet
EndChar

StartChar: uniFEFC
Encoding: 65276 65276 154
Width: 1077
VWidth: 1524
GlyphClass: 3
LigCaretCntFixed: 1
Flags: HMW
AnchorPoint: "Anchor-3" 739 -75 baselig 0
AnchorPoint: "Anchor-2" 703 1274 baselig 0
AnchorPoint: "Anchor-3" 234 -169 baselig 1
AnchorPoint: "Anchor-2" 164 1204 baselig 1
LayerCount: 2
Back
Fore
SplineSet
146 987 m 1
 208 1057 l 1
 379 851 477 538 501 118 c 1
 503 91 l 1
 528 100 l 1
 669 153 740 226 740 319 c 2
 740 1121 l 1
 821 1121 l 1
 821 319 l 1
 822 214 872 153 969 137 c 0
 994 133 1024 131 1059 130 c 1
 1059 20 l 1
 984 21 931 27 901 38 c 0
 842 59 802 89 780 126 c 2
 766 150 l 1
 748 129 l 2
 670 39 547 -21 379 -52 c 1
 225 -79 l 1
 211 30 l 1
 426 68 l 1
 423 97 418 150 412 228 c 0
 388 560 299 813 146 987 c 1
EndSplineSet
Ligature2: "'rlig' Required Ligatures in Arabic lookup 2 subtable" lam.medi alef.fina8E
PairPos2: "'kern' Horizontal Kerning in Arabic lookup 0 subtable" gaf_ye.farsi.isol dx=50 dy=0 dh=50 dv=0 dx=0 dy=0 dh=0 dv=0
PairPos2: "'kern' Horizontal Kerning in Arabic lookup 0 subtable" kaf.farsi_ye.farsi.isol dx=50 dy=0 dh=50 dv=0 dx=0 dy=0 dh=0 dv=0
PairPos2: "'kern' Horizontal Kerning in Arabic lookup 0 subtable" uniFEDB dx=50 dy=0 dh=50 dv=0 dx=0 dy=0 dh=0 dv=0
PairPos2: "'kern' Horizontal Kerning in Arabic lookup 0 subtable" uniFE83 dx=62 dy=0 dh=62 dv=0 dx=0 dy=0 dh=0 dv=0
PairPos2: "'kern' Horizontal Kerning in Arabic lookup 0 subtable" uniFE81 dx=62 dy=0 dh=62 dv=0 dx=0 dy=0 dh=0 dv=0
PairPos2: "'kern' Horizontal Kerning in Arabic lookup 0 subtable" kaf.init dx=50 dy=0 dh=50 dv=0 dx=0 dy=0 dh=0 dv=0
PairPos2: "'kern' Horizontal Kerning in Arabic lookup 0 subtable" uniFB8E dx=50 dy=0 dh=50 dv=0 dx=0 dy=0 dh=0 dv=0
PairPos2: "'kern' Horizontal Kerning in Arabic lookup 0 subtable" uniFB50 dx=62 dy=0 dh=62 dv=0 dx=0 dy=0 dh=0 dv=0
PairPos2: "'kern' Horizontal Kerning in Arabic lookup 0 subtable" gaf.init dx=50 dy=0 dh=50 dv=0 dx=0 dy=0 dh=0 dv=0
PairPos2: "'kern' Horizontal Kerning in Arabic lookup 0 subtable" uniFB92 dx=50 dy=0 dh=50 dv=0 dx=0 dy=0 dh=0 dv=0
LCarets2: 1 579 
EndChar

StartChar: D1
Encoding: 65601 -1 155
Width: 495
VWidth: 1524
GlyphClass: 5
Flags: HMW
LayerCount: 2
Back
Fore
SplineSet
258 963 m 1
 258 848 l 1
 142 848 l 1
 142 963 l 1
 258 963 l 1
EndSplineSet
EndChar

StartChar: D2
Encoding: 65602 -1 156
Width: 548
VWidth: 1524
GlyphClass: 5
Flags: HMW
LayerCount: 2
Back
Fore
SplineSet
373 963 m 1
 373 848 l 1
 257 848 l 1
 257 963 l 1
 373 963 l 1
143 963 m 1
 143 848 l 1
 28 848 l 1
 28 963 l 1
 143 963 l 1
EndSplineSet
EndChar

StartChar: D3
Encoding: 65603 -1 157
Width: 548
VWidth: 1524
GlyphClass: 5
Flags: HMW
LayerCount: 2
Back
Fore
SplineSet
257 1201 m 1
 257 1085 l 1
 141 1085 l 1
 141 1201 l 1
 257 1201 l 1
379 963 m 1
 379 848 l 1
 263 848 l 1
 263 963 l 1
 379 963 l 1
136 963 m 1
 136 848 l 1
 20 848 l 1
 20 963 l 1
 136 963 l 1
EndSplineSet
EndChar

StartChar: D1b
Encoding: 65604 -1 158
Width: 495
VWidth: 1524
GlyphClass: 5
Flags: HMW
LayerCount: 2
Back
Fore
SplineSet
258 -225 m 1
 258 -341 l 1
 142 -341 l 1
 142 -225 l 1
 258 -225 l 1
EndSplineSet
EndChar

StartChar: D2b
Encoding: 65605 -1 159
Width: 548
VWidth: 1524
GlyphClass: 5
Flags: HMW
LayerCount: 2
Back
Fore
SplineSet
373 -225 m 1
 373 -341 l 1
 257 -341 l 1
 257 -225 l 1
 373 -225 l 1
143 -225 m 1
 143 -341 l 1
 28 -341 l 1
 28 -225 l 1
 143 -225 l 1
EndSplineSet
EndChar

StartChar: D3b
Encoding: 65606 -1 160
Width: 548
VWidth: 1524
GlyphClass: 5
Flags: HMW
LayerCount: 2
Back
Fore
SplineSet
257 -431 m 1
 257 -547 l 1
 141 -547 l 1
 141 -431 l 1
 257 -431 l 1
379 -193 m 1
 379 -310 l 1
 263 -310 l 1
 263 -193 l 1
 379 -193 l 1
136 -193 m 1
 136 -310 l 1
 20 -310 l 1
 20 -193 l 1
 136 -193 l 1
EndSplineSet
EndChar

StartChar: mA
Encoding: 65607 -1 161
Width: 0
VWidth: 1524
GlyphClass: 5
Flags: HMW
LayerCount: 2
Back
Fore
SplineSet
161 810 m 2
 114 810 80 819 60 838 c 0
 45.5139515765 852.486048423 29.2888759584 874 0 874 c 128
 -14 874 -27 869 -38 860 c 1
 -72 898 l 1
 -48 924 -26 937 -6 937 c 128
 34.4835061575 937 44.2978254014 921.729249635 66 902 c 2
 86 884 l 1
 97 909 l 2
 124 972 159 1028 202 1076 c 128
 245 1124 290 1148 338 1148 c 0
 431 1148 478 1109 478 1032 c 0
 478 972 438 920 358 876 c 128
 278 832 213 810 163 810 c 2
 161 810 l 2
126 870 m 1
 162 873 l 2
 266 882 347 911 405 962 c 0
 428 982 439 1005 439 1030 c 0
 439 1067 409 1086 349 1086 c 0
 274 1086 205 1025 142 902 c 1
 126 870 l 1
EndSplineSet
EndChar

StartChar: mH
Encoding: 65608 -1 162
Width: 0
VWidth: 1524
GlyphClass: 5
Flags: HMW
LayerCount: 2
Back
Fore
SplineSet
264 1087 m 128
 195.539369029 1087 120 1041.6995396 120 972 c 0
 120 927 165 904 254 904 c 0
 270 904 288 907 309 912 c 1
 330 860 l 1
 236 798 133 761 22 750 c 1
 17 811 l 1
 68 816 110 823 142 831 c 2
 192 843 l 1
 147 868 l 2
 102 892 80 927 80 974 c 128
 80 1076.73202788 166.809059373 1148 275 1148 c 0
 306 1148 341 1142 379 1131 c 1
 363 1073 l 1
 330 1082 298 1087 264 1087 c 128
EndSplineSet
EndChar

StartChar: earab.tanvin_fatheh
Encoding: 1611 1611 163
Width: 0
VWidth: 1524
GlyphClass: 4
Flags: HMW
AnchorPoint: "Anchor-4" 223 746 mark 0
AnchorPoint: "Anchor-2" 223 746 mark 0
AnchorPoint: "Anchor-0" 223 746 mark 0
LayerCount: 2
Back
Fore
SplineSet
372 939 m 1
 372 912 l 1
 30 774 l 1
 30 802 l 1
 372 939 l 1
372 1144 m 1
 372 1116 l 1
 30 978 l 1
 30 1007 l 1
 372 1144 l 1
EndSplineSet
EndChar

StartChar: earab.tanvin_kasreh
Encoding: 1612 1612 164
Width: 0
VWidth: 1524
GlyphClass: 4
Flags: HMW
AnchorPoint: "Anchor-4" 176 630 mark 0
AnchorPoint: "Anchor-2" 176 630 mark 0
AnchorPoint: "Anchor-0" 176 630 mark 0
LayerCount: 2
Back
Fore
SplineSet
-81 925 m 0
 22.2876158021 925 68.5535041224 842.483421674 74 739 c 1
 129 765 172 790 202 816 c 128
 232 842 251 860 258 870 c 1
 221.823573023 883.914010376 196.307640399 883.008893708 153 898 c 128
 127 907 105 925 86 952 c 1
 103 1051 149 1117 223 1150 c 0
 245 1160 263 1165 276 1165 c 2
 298 1165 l 1
 347 1131 372 1091 372 1044 c 128
 372 997 367 964 356 944 c 128
 345 924 338 909 335 900 c 1
 346 893 366 888 393 883 c 1
 393 822 l 1
 305 851 l 1
 249 764 138 690 -27 631 c 1
 -35.5891650567 651.041385132 -42.8395668816 676.778050967 -48 700 c 1
 -30 702 -5 710 27 725 c 1
 28 732 29 738 29 742 c 2
 29 754 l 1
 27.6383386524 817.998083337 -2.87393244106 861 -61 861 c 128
 -76 861 -89 859 -101 855 c 1
 -112.445236813 871.023331539 -116.687463772 884.916618363 -128 900 c 128
 -131 904 -134 909 -137 916 c 1
 -122 922 -104 925 -81 925 c 0
318 1000 m 0
 318 1049 299 1081 260 1097 c 1
 200 1097 161 1058 142 981 c 1
 161 962 186 948 216 939 c 128
 246 930 268 923 285 916 c 1
 307 957 318 985 318 1000 c 0
EndSplineSet
EndChar

StartChar: earab.tanvin_zameh
Encoding: 1613 1613 165
Width: 0
VWidth: 1524
GlyphClass: 4
Flags: HMW
AnchorPoint: "Anchor-5" 188 -52 mark 0
AnchorPoint: "Anchor-3" 188 -52 mark 0
AnchorPoint: "Anchor-1" 188 -52 mark 0
LayerCount: 2
Back
Fore
SplineSet
352 -296 m 1
 352 -324 l 1
 8 -462 l 1
 8 -434 l 1
 352 -296 l 1
352 -98 m 1
 352 -127 l 1
 8 -265 l 1
 8 -236 l 1
 352 -98 l 1
EndSplineSet
EndChar

StartChar: earab.fatheh
Encoding: 1614 1614 166
Width: 0
VWidth: 1524
GlyphClass: 4
Flags: HMW
AnchorPoint: "Anchor-4" 199 933 mark 0
AnchorPoint: "Anchor-2" 199 933 mark 0
AnchorPoint: "Anchor-0" 199 933 mark 0
LayerCount: 2
Back
Fore
SplineSet
352 1134 m 1
 352 1105 l 1
 8 967 l 1
 8 996 l 1
 352 1134 l 1
EndSplineSet
EndChar

StartChar: earab.zameh
Encoding: 1615 1615 167
Width: 0
VWidth: 1524
GlyphClass: 4
Flags: HMW
AnchorPoint: "Anchor-4" 210 630 mark 0
AnchorPoint: "Anchor-2" 210 630 mark 0
AnchorPoint: "Anchor-0" 210 630 mark 0
LayerCount: 2
Back
Fore
SplineSet
295 994 m 0
 295 1041 276 1072 239 1089 c 1
 166.727002793 1089 141.396271718 1049.00648059 126 984 c 1
 144 966 169 951 200 940 c 128
 231 929 255 921 272 914 c 1
 287 945 295 971 295 994 c 0
319 895 m 1
 330 888 353 879 390 869 c 1
 374 812 l 1
 285 850 l 1
 218 755 119 682 -12 633 c 1
 -12 713 l 1
 100 743 183 793 237 864 c 1
 191.293621491 881.57937635 109.765934218 908.619413733 80 945 c 1
 86.2560415416 1078.87928899 146.553348448 1157.27975365 274 1162 c 1
 323 1128 348 1082 348 1024 c 0
 348 992.841482964 338.683755238 952.64101257 328 927 c 128
 323 915 320 904 319 895 c 1
EndSplineSet
EndChar

StartChar: earab.kasreh
Encoding: 1616 1616 168
Width: 0
VWidth: 1524
GlyphClass: 4
Flags: HMW
AnchorPoint: "Anchor-5" 199 -216 mark 0
AnchorPoint: "Anchor-3" 199 -216 mark 0
AnchorPoint: "Anchor-1" 199 -216 mark 0
LayerCount: 2
Back
Fore
SplineSet
352 -292 m 1
 352 -322 l 1
 8 -458 l 1
 8 -429 l 1
 352 -292 l 1
EndSplineSet
EndChar

StartChar: earab.tashdid
Encoding: 1617 1617 169
Width: 0
VWidth: 1524
GlyphClass: 4
Flags: HMW
AnchorPoint: "Anchor-4" 199 781 mark 0
AnchorPoint: "Anchor-2" 199 781 mark 0
AnchorPoint: "Anchor-0" 199 781 mark 0
LayerCount: 2
Back
Fore
SplineSet
285 867 m 128
 238.059448746 867 205.656800643 913.02959807 192 954 c 1
 170 857 133 807 82 806 c 1
 75 806 l 2
 20 806 -14 836 -29 896 c 0
 -36 925 -40 945 -40 956 c 2
 -40 974 l 1
 -42 1033 l 1
 3 1045 l 1
 6 973 l 2
 9 902 31 866 71 866 c 0
 128 866 157 922 157 1034 c 2
 157 1090 l 1
 200 1105 l 1
 200 1040 214 987 243 947 c 0
 253 933 265 926 280 926 c 0
 327 926 350 970 350 1057 c 0
 350 1079 347 1111 341 1153 c 1
 391 1165 l 1
 398 1019 l 1
 398 951 377 905 334 880 c 0
 319 871 303 867 285 867 c 128
EndSplineSet
EndChar

StartChar: earab.sokon
Encoding: 1618 1618 170
Width: 0
VWidth: 1524
GlyphClass: 4
Flags: HMW
AnchorPoint: "Anchor-4" 188 751 mark 0
AnchorPoint: "Anchor-2" 188 751 mark 0
AnchorPoint: "Anchor-0" 188 751 mark 0
LayerCount: 2
Back
Fore
SplineSet
133 1093 m 1
 84 1062 59 1012 59 943 c 0
 59 898 96 876 170 876 c 128
 244 876 282 895 282 933 c 0
 280.815138834 996.982502979 220.160333857 1085.42084053 133 1093 c 1
165 800 m 0
 81.2982256948 800 7 859.06684007 7 942 c 0
 7 1042 49 1117 133 1166 c 1
 158 1161 183 1152 208 1137 c 0
 287 1092 326 1030 326 951 c 0
 326 850 272 800 165 800 c 0
EndSplineSet
EndChar

StartChar: uni0653
Encoding: 1619 1619 171
Width: 0
VWidth: 1524
GlyphClass: 4
Flags: HMW
AnchorPoint: "Anchor-4" -1 793 mark 0
AnchorPoint: "Anchor-2" -1 793 mark 0
AnchorPoint: "Anchor-0" -1 793 mark 0
LayerCount: 2
Back
Fore
SplineSet
-67 830 m 4
 -99.2632080303 830 -158.771886364 839.971485795 -215 847 c 5
 -226 819 -232 793 -232 770 c 6
 -232 736 l 5
 -273 736 l 5
 -271 805 -253 866 -220 919 c 5
 -182 901 -123 892 -42 892 c 132
 39 892 133 924 241 987 c 5
 266 937 l 5
 145 866 34 830 -67 830 c 4
EndSplineSet
EndChar

StartChar: uni0654
Encoding: 1620 1620 172
Width: 0
VWidth: 1524
GlyphClass: 4
Flags: HMW
AnchorPoint: "Anchor-4" 188 734 mark 0
AnchorPoint: "Anchor-2" 188 734 mark 0
AnchorPoint: "Anchor-0" 188 734 mark 0
LayerCount: 2
Back
Fore
SplineSet
56 980 m 128
 56 1056.74198346 146.3271314 1146 223 1146 c 2
 225 1146 l 1
 264 1145 298 1130 328 1102 c 0
 333 1096 339 1089 346 1082 c 1
 314 1045 l 1
 291 1072 266 1086 238 1086 c 128
 154.62445312 1086 96 1033.36312097 96 978 c 0
 96 959 105 943 122 930 c 128
 139 917 171 900 217 880 c 1
 305.643182719 905.087693222 308.228390578 903.62580728 377 920 c 1
 387 858 l 1
 366 853 346 850 328 847 c 0
 260 835 163 798 36 737 c 1
 15 792 l 1
 64 815 96 830 111 837 c 2
 140 849 l 1
 116 870 l 2
 76 905 56 941 56 980 c 128
EndSplineSet
EndChar

StartChar: uni0655
Encoding: 1621 1621 173
Width: 0
VWidth: 1524
GlyphClass: 4
Flags: HMW
AnchorPoint: "Anchor-5" 176 -52 mark 0
AnchorPoint: "Anchor-3" 176 -52 mark 0
AnchorPoint: "Anchor-1" 176 -52 mark 0
LayerCount: 2
Back
Fore
SplineSet
188 -182 m 128
 130.340884321 -182 58 -229.712954417 58 -284 c 128
 58 -345.33337679 133.764116586 -365.882058293 180 -389 c 1
 234.891726873 -365.98088873 280.522607893 -360.712476545 339 -348 c 1
 349 -410 l 1
 340 -412 331 -413 323 -414 c 0
 244 -425 136 -464 -1 -530 c 1
 -22 -476 l 1
 22 -454 l 2
 40 -445 57 -437 72 -430 c 2
 101 -417 l 1
 77 -397 l 1
 37 -362 17 -326 17 -288 c 128
 17 -250 34 -213 70 -176 c 128
 106 -139 141 -120 175 -120 c 128
 250.601058954 -120 269.37670971 -144.489886363 309 -186 c 1
 274 -223 l 1
 253.204272691 -198.738318139 234.560618911 -182 188 -182 c 128
EndSplineSet
EndChar

StartChar: uni0656
Encoding: 1622 1622 174
Width: 0
VWidth: 1524
GlyphClass: 4
Flags: HMW
AnchorPoint: "Anchor-5" 188 -133 mark 0
AnchorPoint: "Anchor-3" 188 -133 mark 0
AnchorPoint: "Anchor-1" 188 -133 mark 0
LayerCount: 2
Back
Fore
SplineSet
190 -179 m 1
 227 -250 245 -316 245 -378 c 0
 245 -395 242 -421 237 -456 c 1
 230 -456 l 1
 227 -363 203 -280 158 -207 c 1
 190 -179 l 1
EndSplineSet
EndChar

StartChar: uni0670
Encoding: 1648 1648 175
Width: 0
VWidth: 1524
GlyphClass: 4
Flags: HMW
AnchorPoint: "Anchor-4" 176 852 mark 0
AnchorPoint: "Anchor-2" 176 852 mark 0
AnchorPoint: "Anchor-0" 176 852 mark 0
LayerCount: 2
Back
Fore
SplineSet
199 866 m 1
 193 866 l 1
 190 945 172 1014 140 1074 c 2
 118 1114 l 1
 151 1143 l 1
 188 1072 206 1007 206 948 c 0
 206 918.800494024 204.818184558 912.545476465 202 890 c 2
 199 866 l 1
EndSplineSet
EndChar

StartChar: uniFDFC
Encoding: 65020 65020 176
Width: 2263
VWidth: 1524
GlyphClass: 2
Flags: HMW
LayerCount: 2
Back
Fore
SplineSet
2050 760 m 1
 2096.06356511 691.527132937 2152 530.898443017 2152 384 c 128
 2152 264.387232584 2067.41346489 160.420528979 1994 93 c 0
 1897 2 1772 -72 1617 -129 c 1
 1588 -23 l 1
 1807 58 1954 156 2027 271 c 0
 2054 313 2067 358 2067 408 c 128
 2067 500.219903459 2017.1256869 640.800379628 1983 695 c 1
 2050 760 l 1
1485 318 m 2
 1592.7244688 318 1697 350.860456013 1697 443 c 0
 1697 502 1675 595 1631 721 c 1
 1709 757 l 1
 1756 620 1780 517 1780 449 c 128
 1780 289.756234551 1646.47881604 210 1472 210 c 128
 1275.17941809 210 1202 274.90307146 1202 468 c 2
 1202 1183 l 1
 1284 1183 l 1
 1284 468 l 2
 1284 350.143430517 1353.00308405 318 1482 318 c 2
 1485 318 l 2
445 -90 m 128
 774.964249206 -90 905 21.1651211572 905 352 c 2
 905 1183 l 1
 987 1183 l 1
 987 363 l 2
 987 72 885 -106 680 -169 c 0
 613 -190 543 -200 472 -200 c 0
 233 -200 114 -103 114 90 c 0
 114 181 153 296 232 436 c 1
 294 407 l 1
 251 325 224 259 214 210 c 128
 204 161 199 120 199 87 c 0
 199 -31 281 -90 445 -90 c 128
1442 16 m 1
 1442 -100 l 1
 1326 -100 l 1
 1326 16 l 1
 1442 16 l 1
1192 16 m 1
 1192 -100 l 1
 1075 -100 l 1
 1075 16 l 1
 1192 16 l 1
EndSplineSet
EndChar

StartChar: mG
Encoding: 65609 -1 177
Width: 786
VWidth: 1524
GlyphClass: 5
Flags: HMW
LayerCount: 2
Back
Fore
SplineSet
687 1243 m 1
 701 1184 l 1
 479 1112 289 1037 132 958 c 1
 111 1014 l 1
 316 1109 508 1186 687 1243 c 1
EndSplineSet
EndChar

StartChar: uniFB92
Encoding: 64402 64402 178
Width: 1725
VWidth: 1524
GlyphClass: 2
Flags: HMW
AnchorPoint: "Anchor-1" 234 -161 basechar 0
AnchorPoint: "Anchor-0" 353 902 basechar 0
LayerCount: 2
Back
Fore
SplineSet
641 -9 m 2
 393.745402567 -9 127 60.0841930387 127 285 c 0
 127 366 148 465 191 582 c 1
 274 564 l 1
 269 547 256 509 237 451 c 128
 218 393 208 342 208 298 c 128
 208 254 221 221 246 197 c 0
 313 132 456 100 674 100 c 128
 892 100 1061 115 1180 144 c 128
 1299 173 1359 222 1359 289 c 0
 1358 357 1321 420 1246 479 c 0
 1204 512 1122 561 1001 627 c 1
 1015 792 l 1
 1153 867 1317 937 1507 1004 c 0
 1548 1019 1583 1030 1613 1038 c 1
 1633 931 l 1
 1502 899 1328 829 1111 722 c 1
 1077 705 l 1
 1110 687 l 1
 1222 624 1297 573 1334 533 c 128
 1397.21793273 464.656288943 1439 405.536530462 1439 289 c 0
 1439 90 1175 -9 647 -9 c 2
 641 -9 l 2
1574 1192 m 5
 1590 1132 l 5
 1381 1064 1191 989 1021 907 c 5
 1000 962 l 5
 1152.61946014 1033.48000032 1207.72879802 1052.66046368 1354 1114 c 132
 1416 1140 1489 1165 1574 1192 c 5
EndSplineSet
PairPos2: "'kern' Horizontal Kerning in Arabic lookup 0 subtable" gaf_ye.farsi.isol dx=75 dy=0 dh=75 dv=0 dx=0 dy=0 dh=0 dv=0
PairPos2: "'kern' Horizontal Kerning in Arabic lookup 0 subtable" kaf.farsi_ye.farsi.isol dx=75 dy=0 dh=75 dv=0 dx=0 dy=0 dh=0 dv=0
PairPos2: "'kern' Horizontal Kerning in Arabic lookup 0 subtable" uniFB6C dx=100 dy=0 dh=100 dv=0 dx=0 dy=0 dh=0 dv=0
PairPos2: "'kern' Horizontal Kerning in Arabic lookup 0 subtable" uniFB6A dx=100 dy=0 dh=100 dv=0 dx=0 dy=0 dh=0 dv=0
PairPos2: "'kern' Horizontal Kerning in Arabic lookup 0 subtable" lam_ye.farsi.isol dx=100 dy=0 dh=100 dv=0 dx=0 dy=0 dh=0 dv=0
PairPos2: "'kern' Horizontal Kerning in Arabic lookup 0 subtable" mim_ye.farsi.isol dx=100 dy=0 dh=100 dv=0 dx=0 dy=0 dh=0 dv=0
PairPos2: "'kern' Horizontal Kerning in Arabic lookup 0 subtable" zad_ye.farsi.isol dx=100 dy=0 dh=100 dv=0 dx=0 dy=0 dh=0 dv=0
PairPos2: "'kern' Horizontal Kerning in Arabic lookup 0 subtable" shin_ye.farsi.isol dx=100 dy=0 dh=100 dv=0 dx=0 dy=0 dh=0 dv=0
PairPos2: "'kern' Horizontal Kerning in Arabic lookup 0 subtable" sad_ye.farsi.isol dx=100 dy=0 dh=100 dv=0 dx=0 dy=0 dh=0 dv=0
PairPos2: "'kern' Horizontal Kerning in Arabic lookup 0 subtable" sin_ye.farsi.isol dx=100 dy=0 dh=100 dv=0 dx=0 dy=0 dh=0 dv=0
PairPos2: "'kern' Horizontal Kerning in Arabic lookup 0 subtable" uniFEFB_earab.tanvin_fatheh dx=100 dy=0 dh=100 dv=0 dx=0 dy=0 dh=0 dv=0
PairPos2: "'kern' Horizontal Kerning in Arabic lookup 0 subtable" uniFEF7 dx=100 dy=0 dh=100 dv=0 dx=0 dy=0 dh=0 dv=0
PairPos2: "'kern' Horizontal Kerning in Arabic lookup 0 subtable" uniFEF5 dx=100 dy=0 dh=100 dv=0 dx=0 dy=0 dh=0 dv=0
PairPos2: "'kern' Horizontal Kerning in Arabic lookup 0 subtable" uniFEED dx=100 dy=0 dh=100 dv=0 dx=0 dy=0 dh=0 dv=0
PairPos2: "'kern' Horizontal Kerning in Arabic lookup 0 subtable" he8_uni0654.init dx=100 dy=0 dh=100 dv=0 dx=0 dy=0 dh=0 dv=0
PairPos2: "'kern' Horizontal Kerning in Arabic lookup 0 subtable" he8_uni0654.isol dx=100 dy=0 dh=100 dv=0 dx=0 dy=0 dh=0 dv=0
PairPos2: "'kern' Horizontal Kerning in Arabic lookup 0 subtable" he8.init dx=100 dy=0 dh=100 dv=0 dx=0 dy=0 dh=0 dv=0
PairPos2: "'kern' Horizontal Kerning in Arabic lookup 0 subtable" uniFEE9 dx=100 dy=0 dh=100 dv=0 dx=0 dy=0 dh=0 dv=0
PairPos2: "'kern' Horizontal Kerning in Arabic lookup 0 subtable" nun.init dx=100 dy=0 dh=100 dv=0 dx=0 dy=0 dh=0 dv=0
PairPos2: "'kern' Horizontal Kerning in Arabic lookup 0 subtable" mim.init dx=100 dy=0 dh=100 dv=0 dx=0 dy=0 dh=0 dv=0
PairPos2: "'kern' Horizontal Kerning in Arabic lookup 0 subtable" uniFEE1 dx=100 dy=0 dh=100 dv=0 dx=0 dy=0 dh=0 dv=0
PairPos2: "'kern' Horizontal Kerning in Arabic lookup 0 subtable" lam.init dx=100 dy=0 dh=100 dv=0 dx=0 dy=0 dh=0 dv=0
PairPos2: "'kern' Horizontal Kerning in Arabic lookup 0 subtable" uniFEDD dx=100 dy=0 dh=100 dv=0 dx=0 dy=0 dh=0 dv=0
PairPos2: "'kern' Horizontal Kerning in Arabic lookup 0 subtable" uniFEDB dx=75 dy=0 dh=75 dv=0 dx=0 dy=0 dh=0 dv=0
PairPos2: "'kern' Horizontal Kerning in Arabic lookup 0 subtable" uniFED9 dx=100 dy=0 dh=100 dv=0 dx=0 dy=0 dh=0 dv=0
PairPos2: "'kern' Horizontal Kerning in Arabic lookup 0 subtable" qaf.init dx=100 dy=0 dh=100 dv=0 dx=0 dy=0 dh=0 dv=0
PairPos2: "'kern' Horizontal Kerning in Arabic lookup 0 subtable" fe.init dx=100 dy=0 dh=100 dv=0 dx=0 dy=0 dh=0 dv=0
PairPos2: "'kern' Horizontal Kerning in Arabic lookup 0 subtable" uniFED1 dx=100 dy=0 dh=100 dv=0 dx=0 dy=0 dh=0 dv=0
PairPos2: "'kern' Horizontal Kerning in Arabic lookup 0 subtable" qein.init dx=100 dy=0 dh=100 dv=0 dx=0 dy=0 dh=0 dv=0
PairPos2: "'kern' Horizontal Kerning in Arabic lookup 0 subtable" uniFECD dx=100 dy=0 dh=100 dv=0 dx=0 dy=0 dh=0 dv=0
PairPos2: "'kern' Horizontal Kerning in Arabic lookup 0 subtable" ein.init dx=100 dy=0 dh=100 dv=0 dx=0 dy=0 dh=0 dv=0
PairPos2: "'kern' Horizontal Kerning in Arabic lookup 0 subtable" uniFEC9 dx=100 dy=0 dh=100 dv=0 dx=0 dy=0 dh=0 dv=0
PairPos2: "'kern' Horizontal Kerning in Arabic lookup 0 subtable" za.init dx=100 dy=0 dh=100 dv=0 dx=0 dy=0 dh=0 dv=0
PairPos2: "'kern' Horizontal Kerning in Arabic lookup 0 subtable" uniFEC5 dx=100 dy=0 dh=100 dv=0 dx=0 dy=0 dh=0 dv=0
PairPos2: "'kern' Horizontal Kerning in Arabic lookup 0 subtable" ta.init dx=100 dy=0 dh=100 dv=0 dx=0 dy=0 dh=0 dv=0
PairPos2: "'kern' Horizontal Kerning in Arabic lookup 0 subtable" uniFEC1 dx=100 dy=0 dh=100 dv=0 dx=0 dy=0 dh=0 dv=0
PairPos2: "'kern' Horizontal Kerning in Arabic lookup 0 subtable" zad.init dx=100 dy=0 dh=100 dv=0 dx=0 dy=0 dh=0 dv=0
PairPos2: "'kern' Horizontal Kerning in Arabic lookup 0 subtable" uniFEBD dx=100 dy=0 dh=100 dv=0 dx=0 dy=0 dh=0 dv=0
PairPos2: "'kern' Horizontal Kerning in Arabic lookup 0 subtable" sad.init dx=100 dy=0 dh=100 dv=0 dx=0 dy=0 dh=0 dv=0
PairPos2: "'kern' Horizontal Kerning in Arabic lookup 0 subtable" uniFEB9 dx=100 dy=0 dh=100 dv=0 dx=0 dy=0 dh=0 dv=0
PairPos2: "'kern' Horizontal Kerning in Arabic lookup 0 subtable" shin.init dx=100 dy=0 dh=100 dv=0 dx=0 dy=0 dh=0 dv=0
PairPos2: "'kern' Horizontal Kerning in Arabic lookup 0 subtable" uniFEB5 dx=100 dy=0 dh=100 dv=0 dx=0 dy=0 dh=0 dv=0
PairPos2: "'kern' Horizontal Kerning in Arabic lookup 0 subtable" sin.init dx=100 dy=0 dh=100 dv=0 dx=0 dy=0 dh=0 dv=0
PairPos2: "'kern' Horizontal Kerning in Arabic lookup 0 subtable" uniFEB1 dx=100 dy=0 dh=100 dv=0 dx=0 dy=0 dh=0 dv=0
PairPos2: "'kern' Horizontal Kerning in Arabic lookup 0 subtable" uniFEAF dx=100 dy=0 dh=100 dv=0 dx=0 dy=0 dh=0 dv=0
PairPos2: "'kern' Horizontal Kerning in Arabic lookup 0 subtable" uniFEAD dx=100 dy=0 dh=100 dv=0 dx=0 dy=0 dh=0 dv=0
PairPos2: "'kern' Horizontal Kerning in Arabic lookup 0 subtable" uniFEAB dx=100 dy=0 dh=100 dv=0 dx=0 dy=0 dh=0 dv=0
PairPos2: "'kern' Horizontal Kerning in Arabic lookup 0 subtable" uniFEA9 dx=100 dy=0 dh=100 dv=0 dx=0 dy=0 dh=0 dv=0
PairPos2: "'kern' Horizontal Kerning in Arabic lookup 0 subtable" khe.init dx=100 dy=0 dh=100 dv=0 dx=0 dy=0 dh=0 dv=0
PairPos2: "'kern' Horizontal Kerning in Arabic lookup 0 subtable" uniFEA5 dx=100 dy=0 dh=100 dv=0 dx=0 dy=0 dh=0 dv=0
PairPos2: "'kern' Horizontal Kerning in Arabic lookup 0 subtable" him.init dx=100 dy=0 dh=100 dv=0 dx=0 dy=0 dh=0 dv=0
PairPos2: "'kern' Horizontal Kerning in Arabic lookup 0 subtable" uniFEA1 dx=100 dy=0 dh=100 dv=0 dx=0 dy=0 dh=0 dv=0
PairPos2: "'kern' Horizontal Kerning in Arabic lookup 0 subtable" jim.init dx=100 dy=0 dh=100 dv=0 dx=0 dy=0 dh=0 dv=0
PairPos2: "'kern' Horizontal Kerning in Arabic lookup 0 subtable" uniFE9D dx=100 dy=0 dh=100 dv=0 dx=0 dy=0 dh=0 dv=0
PairPos2: "'kern' Horizontal Kerning in Arabic lookup 0 subtable" the.init dx=100 dy=0 dh=100 dv=0 dx=0 dy=0 dh=0 dv=0
PairPos2: "'kern' Horizontal Kerning in Arabic lookup 0 subtable" te.init dx=100 dy=0 dh=100 dv=0 dx=0 dy=0 dh=0 dv=0
PairPos2: "'kern' Horizontal Kerning in Arabic lookup 0 subtable" uniFE95 dx=100 dy=0 dh=100 dv=0 dx=0 dy=0 dh=0 dv=0
PairPos2: "'kern' Horizontal Kerning in Arabic lookup 0 subtable" uniFE93 dx=100 dy=0 dh=100 dv=0 dx=0 dy=0 dh=0 dv=0
PairPos2: "'kern' Horizontal Kerning in Arabic lookup 0 subtable" ye.hamze.init dx=100 dy=0 dh=100 dv=0 dx=0 dy=0 dh=0 dv=0
PairPos2: "'kern' Horizontal Kerning in Arabic lookup 0 subtable" uniFE83 dx=100 dy=0 dh=100 dv=0 dx=0 dy=0 dh=0 dv=0
PairPos2: "'kern' Horizontal Kerning in Arabic lookup 0 subtable" uniFE81 dx=100 dy=0 dh=100 dv=0 dx=0 dy=0 dh=0 dv=0
PairPos2: "'kern' Horizontal Kerning in Arabic lookup 0 subtable" uniFE80 dx=100 dy=0 dh=100 dv=0 dx=0 dy=0 dh=0 dv=0
PairPos2: "'kern' Horizontal Kerning in Arabic lookup 0 subtable" uniFD3D dx=100 dy=0 dh=100 dv=0 dx=0 dy=0 dh=0 dv=0
PairPos2: "'kern' Horizontal Kerning in Arabic lookup 0 subtable" uniFBE8 dx=100 dy=0 dh=100 dv=0 dx=0 dy=0 dh=0 dv=0
PairPos2: "'kern' Horizontal Kerning in Arabic lookup 0 subtable" heye dx=100 dy=0 dh=100 dv=0 dx=0 dy=0 dh=0 dv=0
PairPos2: "'kern' Horizontal Kerning in Arabic lookup 0 subtable" kaf.init dx=75 dy=0 dh=75 dv=0 dx=0 dy=0 dh=0 dv=0
PairPos2: "'kern' Horizontal Kerning in Arabic lookup 0 subtable" uniFB8E dx=75 dy=0 dh=75 dv=0 dx=0 dy=0 dh=0 dv=0
PairPos2: "'kern' Horizontal Kerning in Arabic lookup 0 subtable" uniFB8A dx=100 dy=0 dh=100 dv=0 dx=0 dy=0 dh=0 dv=0
PairPos2: "'kern' Horizontal Kerning in Arabic lookup 0 subtable" che.init dx=100 dy=0 dh=100 dv=0 dx=0 dy=0 dh=0 dv=0
PairPos2: "'kern' Horizontal Kerning in Arabic lookup 0 subtable" uniFB7A dx=100 dy=0 dh=100 dv=0 dx=0 dy=0 dh=0 dv=0
PairPos2: "'kern' Horizontal Kerning in Arabic lookup 0 subtable" uniFB56 dx=100 dy=0 dh=100 dv=0 dx=0 dy=0 dh=0 dv=0
PairPos2: "'kern' Horizontal Kerning in Arabic lookup 0 subtable" uniFB50 dx=100 dy=0 dh=100 dv=0 dx=0 dy=0 dh=0 dv=0
PairPos2: "'kern' Horizontal Kerning in Arabic lookup 0 subtable" gaf.init dx=75 dy=0 dh=75 dv=0 dx=0 dy=0 dh=0 dv=0
PairPos2: "'kern' Horizontal Kerning in Arabic lookup 0 subtable" uniFB92 dx=75 dy=0 dh=75 dv=0 dx=0 dy=0 dh=0 dv=0
PairPos2: "'kern' Horizontal Kerning in Arabic lookup 0 subtable" uniFEFB dx=100 dy=0 dh=100 dv=0 dx=0 dy=0 dh=0 dv=0
PairPos2: "'kern' Horizontal Kerning in Arabic lookup 0 subtable" uniFE8D dx=100 dy=0 dh=100 dv=0 dx=0 dy=0 dh=0 dv=0
EndChar

StartChar: gaf.fina
Encoding: 64403 64403 179
Width: 1825
VWidth: 1524
GlyphClass: 2
Flags: HMW
AnchorPoint: "Anchor-1" 234 -161 basechar 0
AnchorPoint: "Anchor-0" 353 902 basechar 0
LayerCount: 2
Back
Fore
SplineSet
1575 1194 m 5
 1592 1134 l 5
 1365 1060 1175 985 1023 908 c 5
 1002 964 l 5
 1210 1061 1401 1138 1575 1194 c 5
628 -9 m 2
 396.506308811 -9 127 62.025490148 127 272 c 128
 127 362 148 465 191 582 c 1
 273 564 l 1
 265 539 252 500 234 447 c 128
 216 394 208 337 208 278 c 128
 208 219 249 175 331 145 c 128
 413 115 519 100 649 100 c 0
 886 100 1063 115 1182 144 c 128
 1301 173 1360 222 1360 290 c 128
 1360 358 1323 420 1248 479 c 0
 1207 511 1126 560 1003 627 c 1
 1016 792 l 1
 1153 866 1317 937 1509 1004 c 0
 1550 1019 1585 1030 1615 1038 c 1
 1635 931 l 1
 1510 900 1335 831 1112 722 c 1
 1079 705 l 1
 1111 687 l 1
 1233 616 1321 560 1375 518 c 0
 1490 429 1568 348 1607 273 c 0
 1651 184 1718 137 1808 131 c 1
 1808 21 l 1
 1715 26 1640 69 1584 148 c 0
 1546.88708362 202.577818209 1521.71256078 259.478059151 1476 309 c 2
 1442 345 l 1
 1441 295 l 2
 1439 172 1350 88 1173 41 c 0
 1065 12 969 -4 884 -6 c 128
 799 -8 728 -9 671 -9 c 2
 628 -9 l 2
EndSplineSet
PairPos2: "'kern' Horizontal Kerning in Arabic lookup 0 subtable" gaf_ye.farsi.isol dx=75 dy=0 dh=75 dv=0 dx=0 dy=0 dh=0 dv=0
PairPos2: "'kern' Horizontal Kerning in Arabic lookup 0 subtable" kaf.farsi_ye.farsi.isol dx=75 dy=0 dh=75 dv=0 dx=0 dy=0 dh=0 dv=0
PairPos2: "'kern' Horizontal Kerning in Arabic lookup 0 subtable" uniFB6C dx=100 dy=0 dh=100 dv=0 dx=0 dy=0 dh=0 dv=0
PairPos2: "'kern' Horizontal Kerning in Arabic lookup 0 subtable" uniFB6A dx=100 dy=0 dh=100 dv=0 dx=0 dy=0 dh=0 dv=0
PairPos2: "'kern' Horizontal Kerning in Arabic lookup 0 subtable" lam_ye.farsi.isol dx=100 dy=0 dh=100 dv=0 dx=0 dy=0 dh=0 dv=0
PairPos2: "'kern' Horizontal Kerning in Arabic lookup 0 subtable" mim_ye.farsi.isol dx=100 dy=0 dh=100 dv=0 dx=0 dy=0 dh=0 dv=0
PairPos2: "'kern' Horizontal Kerning in Arabic lookup 0 subtable" zad_ye.farsi.isol dx=100 dy=0 dh=100 dv=0 dx=0 dy=0 dh=0 dv=0
PairPos2: "'kern' Horizontal Kerning in Arabic lookup 0 subtable" shin_ye.farsi.isol dx=100 dy=0 dh=100 dv=0 dx=0 dy=0 dh=0 dv=0
PairPos2: "'kern' Horizontal Kerning in Arabic lookup 0 subtable" sad_ye.farsi.isol dx=100 dy=0 dh=100 dv=0 dx=0 dy=0 dh=0 dv=0
PairPos2: "'kern' Horizontal Kerning in Arabic lookup 0 subtable" sin_ye.farsi.isol dx=100 dy=0 dh=100 dv=0 dx=0 dy=0 dh=0 dv=0
PairPos2: "'kern' Horizontal Kerning in Arabic lookup 0 subtable" uniFEFB_earab.tanvin_fatheh dx=100 dy=0 dh=100 dv=0 dx=0 dy=0 dh=0 dv=0
PairPos2: "'kern' Horizontal Kerning in Arabic lookup 0 subtable" uniFEF7 dx=100 dy=0 dh=100 dv=0 dx=0 dy=0 dh=0 dv=0
PairPos2: "'kern' Horizontal Kerning in Arabic lookup 0 subtable" uniFEF5 dx=100 dy=0 dh=100 dv=0 dx=0 dy=0 dh=0 dv=0
PairPos2: "'kern' Horizontal Kerning in Arabic lookup 0 subtable" uniFEED dx=100 dy=0 dh=100 dv=0 dx=0 dy=0 dh=0 dv=0
PairPos2: "'kern' Horizontal Kerning in Arabic lookup 0 subtable" he8_uni0654.init dx=100 dy=0 dh=100 dv=0 dx=0 dy=0 dh=0 dv=0
PairPos2: "'kern' Horizontal Kerning in Arabic lookup 0 subtable" he8_uni0654.isol dx=100 dy=0 dh=100 dv=0 dx=0 dy=0 dh=0 dv=0
PairPos2: "'kern' Horizontal Kerning in Arabic lookup 0 subtable" he8.init dx=100 dy=0 dh=100 dv=0 dx=0 dy=0 dh=0 dv=0
PairPos2: "'kern' Horizontal Kerning in Arabic lookup 0 subtable" uniFEE9 dx=100 dy=0 dh=100 dv=0 dx=0 dy=0 dh=0 dv=0
PairPos2: "'kern' Horizontal Kerning in Arabic lookup 0 subtable" nun.init dx=100 dy=0 dh=100 dv=0 dx=0 dy=0 dh=0 dv=0
PairPos2: "'kern' Horizontal Kerning in Arabic lookup 0 subtable" mim.init dx=100 dy=0 dh=100 dv=0 dx=0 dy=0 dh=0 dv=0
PairPos2: "'kern' Horizontal Kerning in Arabic lookup 0 subtable" uniFEE1 dx=100 dy=0 dh=100 dv=0 dx=0 dy=0 dh=0 dv=0
PairPos2: "'kern' Horizontal Kerning in Arabic lookup 0 subtable" lam.init dx=100 dy=0 dh=100 dv=0 dx=0 dy=0 dh=0 dv=0
PairPos2: "'kern' Horizontal Kerning in Arabic lookup 0 subtable" uniFEDD dx=100 dy=0 dh=100 dv=0 dx=0 dy=0 dh=0 dv=0
PairPos2: "'kern' Horizontal Kerning in Arabic lookup 0 subtable" uniFEDB dx=75 dy=0 dh=75 dv=0 dx=0 dy=0 dh=0 dv=0
PairPos2: "'kern' Horizontal Kerning in Arabic lookup 0 subtable" uniFED9 dx=100 dy=0 dh=100 dv=0 dx=0 dy=0 dh=0 dv=0
PairPos2: "'kern' Horizontal Kerning in Arabic lookup 0 subtable" qaf.init dx=100 dy=0 dh=100 dv=0 dx=0 dy=0 dh=0 dv=0
PairPos2: "'kern' Horizontal Kerning in Arabic lookup 0 subtable" fe.init dx=100 dy=0 dh=100 dv=0 dx=0 dy=0 dh=0 dv=0
PairPos2: "'kern' Horizontal Kerning in Arabic lookup 0 subtable" uniFED1 dx=100 dy=0 dh=100 dv=0 dx=0 dy=0 dh=0 dv=0
PairPos2: "'kern' Horizontal Kerning in Arabic lookup 0 subtable" qein.init dx=100 dy=0 dh=100 dv=0 dx=0 dy=0 dh=0 dv=0
PairPos2: "'kern' Horizontal Kerning in Arabic lookup 0 subtable" uniFECD dx=100 dy=0 dh=100 dv=0 dx=0 dy=0 dh=0 dv=0
PairPos2: "'kern' Horizontal Kerning in Arabic lookup 0 subtable" ein.init dx=100 dy=0 dh=100 dv=0 dx=0 dy=0 dh=0 dv=0
PairPos2: "'kern' Horizontal Kerning in Arabic lookup 0 subtable" uniFEC9 dx=100 dy=0 dh=100 dv=0 dx=0 dy=0 dh=0 dv=0
PairPos2: "'kern' Horizontal Kerning in Arabic lookup 0 subtable" za.init dx=100 dy=0 dh=100 dv=0 dx=0 dy=0 dh=0 dv=0
PairPos2: "'kern' Horizontal Kerning in Arabic lookup 0 subtable" uniFEC5 dx=100 dy=0 dh=100 dv=0 dx=0 dy=0 dh=0 dv=0
PairPos2: "'kern' Horizontal Kerning in Arabic lookup 0 subtable" ta.init dx=100 dy=0 dh=100 dv=0 dx=0 dy=0 dh=0 dv=0
PairPos2: "'kern' Horizontal Kerning in Arabic lookup 0 subtable" uniFEC1 dx=100 dy=0 dh=100 dv=0 dx=0 dy=0 dh=0 dv=0
PairPos2: "'kern' Horizontal Kerning in Arabic lookup 0 subtable" zad.init dx=100 dy=0 dh=100 dv=0 dx=0 dy=0 dh=0 dv=0
PairPos2: "'kern' Horizontal Kerning in Arabic lookup 0 subtable" uniFEBD dx=100 dy=0 dh=100 dv=0 dx=0 dy=0 dh=0 dv=0
PairPos2: "'kern' Horizontal Kerning in Arabic lookup 0 subtable" sad.init dx=100 dy=0 dh=100 dv=0 dx=0 dy=0 dh=0 dv=0
PairPos2: "'kern' Horizontal Kerning in Arabic lookup 0 subtable" uniFEB9 dx=100 dy=0 dh=100 dv=0 dx=0 dy=0 dh=0 dv=0
PairPos2: "'kern' Horizontal Kerning in Arabic lookup 0 subtable" shin.init dx=100 dy=0 dh=100 dv=0 dx=0 dy=0 dh=0 dv=0
PairPos2: "'kern' Horizontal Kerning in Arabic lookup 0 subtable" uniFEB5 dx=100 dy=0 dh=100 dv=0 dx=0 dy=0 dh=0 dv=0
PairPos2: "'kern' Horizontal Kerning in Arabic lookup 0 subtable" sin.init dx=100 dy=0 dh=100 dv=0 dx=0 dy=0 dh=0 dv=0
PairPos2: "'kern' Horizontal Kerning in Arabic lookup 0 subtable" uniFEB1 dx=100 dy=0 dh=100 dv=0 dx=0 dy=0 dh=0 dv=0
PairPos2: "'kern' Horizontal Kerning in Arabic lookup 0 subtable" uniFEAF dx=100 dy=0 dh=100 dv=0 dx=0 dy=0 dh=0 dv=0
PairPos2: "'kern' Horizontal Kerning in Arabic lookup 0 subtable" uniFEAD dx=100 dy=0 dh=100 dv=0 dx=0 dy=0 dh=0 dv=0
PairPos2: "'kern' Horizontal Kerning in Arabic lookup 0 subtable" uniFEAB dx=100 dy=0 dh=100 dv=0 dx=0 dy=0 dh=0 dv=0
PairPos2: "'kern' Horizontal Kerning in Arabic lookup 0 subtable" uniFEA9 dx=100 dy=0 dh=100 dv=0 dx=0 dy=0 dh=0 dv=0
PairPos2: "'kern' Horizontal Kerning in Arabic lookup 0 subtable" khe.init dx=100 dy=0 dh=100 dv=0 dx=0 dy=0 dh=0 dv=0
PairPos2: "'kern' Horizontal Kerning in Arabic lookup 0 subtable" uniFEA5 dx=100 dy=0 dh=100 dv=0 dx=0 dy=0 dh=0 dv=0
PairPos2: "'kern' Horizontal Kerning in Arabic lookup 0 subtable" him.init dx=100 dy=0 dh=100 dv=0 dx=0 dy=0 dh=0 dv=0
PairPos2: "'kern' Horizontal Kerning in Arabic lookup 0 subtable" uniFEA1 dx=100 dy=0 dh=100 dv=0 dx=0 dy=0 dh=0 dv=0
PairPos2: "'kern' Horizontal Kerning in Arabic lookup 0 subtable" jim.init dx=100 dy=0 dh=100 dv=0 dx=0 dy=0 dh=0 dv=0
PairPos2: "'kern' Horizontal Kerning in Arabic lookup 0 subtable" uniFE9D dx=100 dy=0 dh=100 dv=0 dx=0 dy=0 dh=0 dv=0
PairPos2: "'kern' Horizontal Kerning in Arabic lookup 0 subtable" the.init dx=100 dy=0 dh=100 dv=0 dx=0 dy=0 dh=0 dv=0
PairPos2: "'kern' Horizontal Kerning in Arabic lookup 0 subtable" te.init dx=100 dy=0 dh=100 dv=0 dx=0 dy=0 dh=0 dv=0
PairPos2: "'kern' Horizontal Kerning in Arabic lookup 0 subtable" uniFE95 dx=100 dy=0 dh=100 dv=0 dx=0 dy=0 dh=0 dv=0
PairPos2: "'kern' Horizontal Kerning in Arabic lookup 0 subtable" uniFE93 dx=100 dy=0 dh=100 dv=0 dx=0 dy=0 dh=0 dv=0
PairPos2: "'kern' Horizontal Kerning in Arabic lookup 0 subtable" ye.hamze.init dx=100 dy=0 dh=100 dv=0 dx=0 dy=0 dh=0 dv=0
PairPos2: "'kern' Horizontal Kerning in Arabic lookup 0 subtable" uniFE83 dx=100 dy=0 dh=100 dv=0 dx=0 dy=0 dh=0 dv=0
PairPos2: "'kern' Horizontal Kerning in Arabic lookup 0 subtable" uniFE81 dx=100 dy=0 dh=100 dv=0 dx=0 dy=0 dh=0 dv=0
PairPos2: "'kern' Horizontal Kerning in Arabic lookup 0 subtable" uniFE80 dx=100 dy=0 dh=100 dv=0 dx=0 dy=0 dh=0 dv=0
PairPos2: "'kern' Horizontal Kerning in Arabic lookup 0 subtable" uniFD3D dx=100 dy=0 dh=100 dv=0 dx=0 dy=0 dh=0 dv=0
PairPos2: "'kern' Horizontal Kerning in Arabic lookup 0 subtable" uniFBE8 dx=100 dy=0 dh=100 dv=0 dx=0 dy=0 dh=0 dv=0
PairPos2: "'kern' Horizontal Kerning in Arabic lookup 0 subtable" heye dx=100 dy=0 dh=100 dv=0 dx=0 dy=0 dh=0 dv=0
PairPos2: "'kern' Horizontal Kerning in Arabic lookup 0 subtable" kaf.init dx=75 dy=0 dh=75 dv=0 dx=0 dy=0 dh=0 dv=0
PairPos2: "'kern' Horizontal Kerning in Arabic lookup 0 subtable" uniFB8E dx=75 dy=0 dh=75 dv=0 dx=0 dy=0 dh=0 dv=0
PairPos2: "'kern' Horizontal Kerning in Arabic lookup 0 subtable" uniFB8A dx=100 dy=0 dh=100 dv=0 dx=0 dy=0 dh=0 dv=0
PairPos2: "'kern' Horizontal Kerning in Arabic lookup 0 subtable" che.init dx=100 dy=0 dh=100 dv=0 dx=0 dy=0 dh=0 dv=0
PairPos2: "'kern' Horizontal Kerning in Arabic lookup 0 subtable" uniFB7A dx=100 dy=0 dh=100 dv=0 dx=0 dy=0 dh=0 dv=0
PairPos2: "'kern' Horizontal Kerning in Arabic lookup 0 subtable" uniFB56 dx=100 dy=0 dh=100 dv=0 dx=0 dy=0 dh=0 dv=0
PairPos2: "'kern' Horizontal Kerning in Arabic lookup 0 subtable" uniFB50 dx=100 dy=0 dh=100 dv=0 dx=0 dy=0 dh=0 dv=0
PairPos2: "'kern' Horizontal Kerning in Arabic lookup 0 subtable" gaf.init dx=75 dy=0 dh=75 dv=0 dx=0 dy=0 dh=0 dv=0
PairPos2: "'kern' Horizontal Kerning in Arabic lookup 0 subtable" uniFB92 dx=75 dy=0 dh=75 dv=0 dx=0 dy=0 dh=0 dv=0
PairPos2: "'kern' Horizontal Kerning in Arabic lookup 0 subtable" uniFEFB dx=100 dy=0 dh=100 dv=0 dx=0 dy=0 dh=0 dv=0
PairPos2: "'kern' Horizontal Kerning in Arabic lookup 0 subtable" uniFE8D dx=100 dy=0 dh=100 dv=0 dx=0 dy=0 dh=0 dv=0
EndChar

StartChar: gaf.init
Encoding: 64404 64404 180
Width: 796
VWidth: 1524
GlyphClass: 2
Flags: HMW
AnchorPoint: "Anchor-1" 234 -161 basechar 0
AnchorPoint: "Anchor-0" 210 1134 basechar 0
LayerCount: 2
Back
Fore
SplineSet
55 20 m 2
 0 20 l 2
 -11 20 -23 22 -35 25 c 1
 -35 130 l 1
 55 130 l 2
 212 130 321 158 383 213 c 0
 408 234 420 262 420 296 c 0
 420 385 344 472 192 556 c 0
 153 578 110 602 64 627 c 1
 78 792 l 1
 249.645162922 884.876492266 459.582674971 973.374802491 675 1038 c 1
 696 931 l 1
 617 910 521 876 410 828 c 128
 299 780 220 745 173 722 c 2
 139 705 l 1
 172 687 l 1
 282 624 356 573 394 533 c 0
 465 459 500 387 500 317 c 128
 500 161.194956409 411.949241486 92.0956015651 284 53 c 128
 212 31 136 20 55 20 c 2
637 1193 m 5
 651 1134 l 5
 429 1062 239 987 82 908 c 5
 61 964 l 5
 266 1059 458 1136 637 1193 c 5
EndSplineSet
EndChar

StartChar: gaf.medi
Encoding: 64405 64405 181
Width: 898
VWidth: 1524
GlyphClass: 2
Flags: HMW
AnchorPoint: "Anchor-1" 234 -161 basechar 0
AnchorPoint: "Anchor-0" 210 1134 basechar 0
LayerCount: 2
Back
Fore
SplineSet
500 297 m 2
 500 97.0934055528 266.697861797 20 55 20 c 2
 0 20 l 2
 -11 20 -23 22 -35 25 c 1
 -35 130 l 1
 55 130 l 2
 212 130 321 158 383 213 c 0
 408 234 420 262 420 296 c 0
 420 385 344 472 192 556 c 0
 153 578 110 602 64 627 c 1
 78 792 l 1
 249.645162922 884.876492266 459.582674971 973.374802491 675 1038 c 1
 696 931 l 1
 617 910 521 876 410 828 c 128
 299 780 220 745 173 722 c 1
 140 705 l 1
 172 687 l 1
 295 616 383 559 436 518 c 0
 551 429 628 347 666 273 c 0
 711 184 782 137 880 131 c 1
 880 20 l 1
 756 26 663 92 601 217 c 0
 589 241 567 272 535 310 c 2
 500 352 l 1
 500 297 l 2
687 1243 m 1
 701 1184 l 1
 479 1112 289 1037 132 958 c 1
 111 1014 l 1
 316 1109 508 1186 687 1243 c 1
EndSplineSet
EndChar

StartChar: khe.medi
Encoding: 65192 65192 280
Width: 1183
VWidth: 1524
GlyphClass: 2
Flags: HMW
AnchorPoint: "Anchor-1" 344 -161 basechar 0
AnchorPoint: "Anchor-0" 318 1180 basechar 0
LayerCount: 2
Back
Fore
SplineSet
9 209 m 1
 49 209 l 1
 49 169 l 1
 9 169 l 1
 9 209 l 1
EndSplineSet
Refer: 100 -1 N 1 0 0 1 0 0 3
Refer: 155 -1 N 1 0 0 1 344 71 2
EndChar

StartChar: uni2026.fa
Encoding: 65663 -1 364
Width: 1599
VWidth: 1524
GlyphClass: 2
Flags: HMW
LayerCount: 2
Back
Fore
SplineSet
184 82 m 128
 184 129.687372009 221.392185948 166 268 166 c 128
 315.187411755 166 352 129.686271739 352 82 c 128
 352 43.1235144087 320.777539009 5.17278644641 293 -1 c 128
 284 -3 272 -4 256 -4 c 128
 218.336605708 -4 184 41.4115263418 184 82 c 128
717 82 m 128
 717 130.218937671 751.962173513 166 800 166 c 128
 847.687372009 166 884 129.686271739 884 82 c 128
 884 35.0095999307 848.171958325 -4 801 -4 c 128
 753.312627991 -4 717 34.470592391 717 82 c 128
1250 82 m 128
 1250 129.687372009 1286.799679 166 1334 166 c 128
 1380.65377053 166 1418 129.694945037 1418 83 c 128
 1418 37.3816260601 1379.49987726 -4 1334 -4 c 128
 1287.40091054 -4 1250 34.470592391 1250 82 c 128
EndSplineSet
EndChar

StartChar: period.fa
Encoding: 65664 -1 365
Width: 507
VWidth: 1524
GlyphClass: 2
Flags: HMW
LayerCount: 2
Back
Fore
SplineSet
170 82 m 128
 170 128.077617228 205.811983879 166 251 166 c 2
 254 166 l 2
 301.687372009 166 338 129.686271739 338 82 c 128
 338 34.4689419861 301.686271739 -4 254 -4 c 128
 206.312627991 -4 170 34.470592391 170 82 c 128
EndSplineSet
EndChar

StartChar: virgul.fa
Encoding: 65665 -1 366
Width: 537
VWidth: 1524
GlyphClass: 2
Flags: HMW
LayerCount: 2
Back
Fore
SplineSet
268 -4 m 128
 200.016054807 -4 154 64.2613721937 154 141 c 0
 154 238 210 324 323 401 c 1
 330 397 337 393 346 389 c 1
 247 327 197 262 194 194 c 0
 194 182 196 172 199 163 c 2
 210 136 l 1
 231 155 l 2
 242 165 258 170 278 170 c 128
 320.083628804 170 356 126.343019472 356 83 c 128
 356 34.1763905797 318.662477467 -4 268 -4 c 128
EndSplineSet
EndChar

StartChar: noqte_virgul.fa
Encoding: 65666 -1 367
Width: 537
VWidth: 1524
GlyphClass: 2
Flags: HMW
LayerCount: 2
Back
Fore
SplineSet
268 394 m 128
 200.52671516 394 156 459.378883988 156 538 c 0
 156 633 212 719 325 798 c 1
 332 794 339 790 348 785 c 1
 248 723 197 658 196 589 c 1
 198 567 l 1
 198 522 l 1
 231 552 l 2
 241 561 256 566 276 566 c 128
 317.980630037 566 357 523.474259001 357 480 c 128
 357 431.390810476 317.501660178 394 268 394 c 128
186 83 m 128
 186 130.746664025 220.685260274 166 270 166 c 128
 320.185546074 166 354 132.294282298 354 83 c 128
 354 33.5806306633 315.535880186 1.46430562228 270 -4 c 1
 222.879929685 -2.03666373688 186 34.9655096508 186 83 c 128
EndSplineSet
EndChar

StartChar: colon.fa
Encoding: 65667 -1 368
Width: 537
VWidth: 1524
GlyphClass: 2
Flags: HMW
LayerCount: 2
Back
Fore
SplineSet
190 514 m 128
 190 550.101357781 220.561589472 597 252 597 c 2
 273 597 l 2
 319.063285957 597 357 560.104681512 357 514 c 128
 357 467.951900852 319.626549882 430 273 430 c 2
 272 430 l 2
 225.815407562 430 190 467.386203624 190 514 c 128
190 82 m 128
 190 129.687372009 224.15686413 166 272 166 c 128
 319.687372009 166 356 129.686271739 356 82 c 128
 356 33.881641539 319.623875513 -1.05733852027 273 -3 c 1
 270 -3 l 2
 224.246677294 -3 190 35.5148637567 190 82 c 128
EndSplineSet
EndChar

StartChar: soal.fa
Encoding: 65670 -1 371
Width: 848
VWidth: 1524
GlyphClass: 2
Flags: HMW
LayerCount: 2
Back
Fore
SplineSet
502 166 m 128
 546.198846295 166 588 130.627487132 588 88 c 128
 588 25.1901710372 558.873243499 4.2583231249 495 -3 c 1
 453.826504752 -0.832973934314 420 37.0373479075 420 82 c 128
 420 129.687372009 454.15686413 166 502 166 c 128
472 1110 m 128
 382.480666351 1110 265 1053.36760531 265 968 c 128
 265 929 279 895 306 867 c 128
 360.643843456 810.33231049 442.803244554 751.888254456 505 701 c 0
 562 654 591 592 591 515 c 0
 591 454.269758206 589.395808903 445.754132464 551 392 c 1
 476 409 l 1
 501 451 514 489 514 524 c 128
 514 589.908015295 407.605041852 656.801188888 339 707 c 0
 238 782 187 870 187 971 c 0
 187 1036 216 1094 274 1144 c 128
 332 1194 392 1220 455 1220 c 128
 518 1220 587 1209 660 1188 c 1
 632 1085 l 1
 577 1102 524 1110 472 1110 c 128
EndSplineSet
EndChar

StartChar: exclam.fa
Encoding: 65671 -1 372
Width: 640
VWidth: 1524
GlyphClass: 2
Flags: HMW
LayerCount: 2
Back
Fore
SplineSet
380 1174 m 1
 380 423 l 1
 278 423 l 1
 278 1174 l 1
 380 1174 l 1
380 206 m 1
 380 46 l 1
 262 46 l 1
 262 206 l 1
 380 206 l 1
EndSplineSet
EndChar

StartChar: uni066D
Encoding: 1645 1645 378
Width: 1000
VWidth: 1524
GlyphClass: 2
Flags: HMW
LayerCount: 2
Back
Fore
SplineSet
309 166 m 128
 282.696911221 166 258 200.802801657 258 226 c 128
 258 238 261 246 268 252 c 1
 420 475 l 1
 173 557 l 1
 150 566 138 581 138 604 c 0
 138 636 154 652 187 652 c 0
 193 652 198 651 201 650 c 1
 202 649 l 1
 450 571 l 1
 450 830 l 2
 450 862.179034152 469.604084982 900 500 900 c 128
 532.342229099 900 550 864.960883887 550 830 c 2
 550 571 l 1
 798 649 l 1
 799 650 l 1
 802 651 809 652 818 652 c 128
 843.631953303 652 862 625.233772321 862 595 c 128
 862 576 851 563 828 557 c 1
 580 475 l 1
 733 253 l 1
 740 246 744 237 744 227 c 128
 744 204.238290036 715.043249925 167 691 167 c 128
 677 167 664 176 652 195 c 2
 501 419 l 1
 348 195 l 2
 336 176 323 166 309 166 c 128
EndSplineSet
EndChar

StartChar: D3bs
Encoding: 65682 -1 379
Width: 1170
VWidth: 1524
GlyphClass: 5
Flags: HMW
LayerCount: 2
Back
Fore
SplineSet
652 -17 m 1
 652 -118 l 1
 552 -118 l 1
 552 -17 l 1
 652 -17 l 1
761 196 m 1
 761 95 l 1
 661 95 l 1
 661 196 l 1
 761 196 l 1
544 196 m 1
 544 95 l 1
 442 95 l 1
 442 196 l 1
 544 196 l 1
EndSplineSet
EndChar
